<?xml version="1.0" encoding="UTF-8"?>
<svg width="133px" height="38px" viewBox="0 0 133 38" version="1.1" xmlns="http://www.w3.org/2000/svg" xmlns:xlink="http://www.w3.org/1999/xlink">
    <!-- Generator: Sketch 47 (45396) - http://www.bohemiancoding.com/sketch -->
    <title>App_Store</title>
    <desc>Created with Sketch.</desc>
    <defs></defs>
    <g id="Page-1" stroke="none" stroke-width="1" fill="none" fill-rule="evenodd">
        <g id="Desktop-About-02" transform="translate(-496.000000, -2488.000000)">
            <g id="Скачайте-artefact" transform="translate(-134.000000, 2130.000000)">
                <g id="Group-6" transform="translate(630.000000, 358.000000)">
                    <g id="App_Store">
                        <rect id="Rectangle-10" fill="#050708" x="0" y="0" width="133" height="38" rx="4"></rect>
                        <g id="g62" transform="translate(12.000000, 5.000000)" fill-rule="nonzero" fill="#FFFFFF">
                            <g id="g12" transform="translate(0.050595, 0.191964)">
                                <g id="g10">
                                    <path d="M17.7008765,13.4592278 C17.6725598,10.3121666 20.2776976,8.78111113 20.3968231,8.70983112 C18.9214246,6.55873718 16.6346057,6.2648292 15.8309969,6.24139468 C13.9103424,6.03927192 12.0472978,7.39066275 11.0689065,7.39066275 C10.0709863,7.39066275 8.56434179,6.26092345 6.94052462,6.29412236 C4.8509463,6.32634483 2.89611649,7.53615209 1.82398706,9.4148197 C-0.38862251,13.2453878 1.2615585,18.8745556 3.38140641,21.9708419 C4.44181858,23.4872509 5.680919,25.1803952 7.30278329,25.1208324 C8.8894958,25.0554111 9.48219395,24.1092422 11.3969898,24.1092422 C13.2942097,24.1092422 13.8507796,25.1208324 15.5048664,25.0827513 C17.2077751,25.0554111 18.2799045,23.5595073 19.303212,22.0294282 C20.5286423,20.2913678 21.0207673,18.5796711 21.0402961,18.4917917 C21.0002621,18.4781215 17.733099,17.2312096 17.7008765,13.4592278 Z" id="path6"></path>
                                    <path d="M14.5762734,4.20454404 C15.4296807,3.13729679 16.0135909,1.68533279 15.8515021,0.211887147 C14.6163074,0.266567701 13.0715818,1.06627081 12.1820463,2.11008353 C11.3950369,3.02988856 10.6920012,4.53750955 10.8736188,5.95529821 C12.2611378,6.05880069 13.6857615,5.25519183 14.5762734,4.20454404 L14.5762734,4.20454404 Z" id="path8"></path>
                                </g>
                            </g>
                            <g id="g30" transform="translate(29.343749, 11.909226)">
                                <path d="M11.3706259,13.1858251 L9.15313419,13.1858251 L7.93844473,9.36892709 L3.7163248,9.36892709 L2.55924522,13.1858251 L0.400339771,13.1858251 L4.58340216,0.191381939 L7.16705835,0.191381939 L11.3706259,13.1858251 Z M7.57228031,7.767568 L6.47378703,4.37444433 C6.35759086,4.02780867 6.13984508,3.21150612 5.81859682,1.92651309 L5.77953928,1.92651309 C5.65162585,2.47917727 5.44559733,3.29547982 5.16243017,4.37444433 L4.08346567,7.767568 L7.57228031,7.767568 Z" id="path14"></path>
                                <path d="M22.1280485,8.38565355 C22.1280485,9.97920113 21.6974392,11.2388068 20.8362204,12.163494 C20.0648341,12.9866316 19.1069479,13.3977122 17.9635385,13.3977122 C16.7293202,13.3977122 15.8427141,12.9544091 15.3027436,12.067803 L15.2636861,12.067803 L15.2636861,17.0036995 L13.1819193,17.0036995 L13.1819193,6.90049064 C13.1819193,5.89866478 13.1555555,4.87047507 13.1047807,3.81592153 L14.9356028,3.81592153 L15.051799,5.30108444 L15.0908565,5.30108444 C15.7851043,4.18208595 16.8386814,3.62356315 18.2525643,3.62356315 C19.3578926,3.62356315 20.280627,4.06003114 21.0188144,4.93394357 C21.7589548,5.80883244 22.1280485,6.95907695 22.1280485,8.38565355 L22.1280485,8.38565355 Z M20.0072242,8.46181575 C20.0072242,7.54982222 19.8021721,6.7979646 19.3901151,6.20624289 C18.9399769,5.58913378 18.3355615,5.28057923 17.5778453,5.28057923 C17.0642386,5.28057923 16.5975011,5.4524324 16.1805618,5.79125655 C15.7626462,6.13301001 15.4892434,6.57924239 15.36133,7.13190656 C15.296885,7.38968632 15.2646625,7.60059702 15.2646625,7.76659156 L15.2646625,9.32889311 C15.2646625,10.0104472 15.4736204,10.5855694 15.891536,11.0552363 C16.3094517,11.5249032 16.8523515,11.7592485 17.5202354,11.7592485 C18.3043155,11.7592485 18.9145895,11.4565525 19.3510575,10.8531136 C19.788502,10.2486981 20.0072242,9.45192436 20.0072242,8.46181575 L20.0072242,8.46181575 Z" id="path16"></path>
                                <path d="M32.9049999,8.38565355 C32.9049999,9.97920113 32.4743905,11.2388068 31.6121954,12.163494 C30.8417854,12.9866316 29.8838993,13.3977122 28.7404898,13.3977122 C27.5062716,13.3977122 26.6196655,12.9544091 26.0806714,12.067803 L26.0416139,12.067803 L26.0416139,17.0036995 L23.9598471,17.0036995 L23.9598471,6.90049064 C23.9598471,5.89866478 23.9334833,4.87047507 23.8827085,3.81592153 L25.7135306,3.81592153 L25.8297268,5.30108444 L25.8687843,5.30108444 C26.5620556,4.18208595 27.6156327,3.62356315 29.0304921,3.62356315 C30.134844,3.62356315 31.0575783,4.06003114 31.7977187,4.93394357 C32.5349297,5.80883244 32.9049999,6.95907695 32.9049999,8.38565355 L32.9049999,8.38565355 Z M30.7841755,8.46181575 C30.7841755,7.54982222 30.578147,6.7979646 30.16609,6.20624289 C29.7159519,5.58913378 29.1134893,5.28057923 28.3547966,5.28057923 C27.8402136,5.28057923 27.3744524,5.4524324 26.9565367,5.79125655 C26.5386211,6.13301001 26.2661948,6.57924239 26.1382813,7.13190656 C26.0748128,7.38968632 26.0416139,7.60059702 26.0416139,7.76659156 L26.0416139,9.32889311 C26.0416139,10.0104472 26.2505717,10.5855694 26.6665345,11.0552363 C27.0844502,11.5239268 27.62735,11.7592485 28.2971868,11.7592485 C29.0812669,11.7592485 29.6915409,11.4565525 30.1280089,10.8531136 C30.5654533,10.2486981 30.7841755,9.45192436 30.7841755,8.46181575 L30.7841755,8.46181575 Z" id="path18"></path>
                                <path d="M44.9542506,9.5417567 C44.9542506,10.647085 44.5705102,11.5463849 43.8001003,12.2406326 C42.9535281,12.9993253 41.7749669,13.3781834 40.2605109,13.3781834 C38.862251,13.3781834 37.7412996,13.1086864 36.8927746,12.5687159 L37.3751352,10.8335848 C38.2890816,11.386249 39.2918839,11.6635575 40.3845185,11.6635575 C41.1685986,11.6635575 41.7788727,11.4858457 42.2172935,11.132375 C42.6537615,10.7789042 42.8715073,10.3043551 42.8715073,9.71263343 C42.8715073,9.18535666 42.6918426,8.74107715 42.3315368,8.38077136 C41.9731839,8.02046557 41.3746271,7.68554717 40.5387958,7.37601618 C38.2636942,6.52749115 37.1271198,5.28448498 37.1271198,3.64992699 C37.1271198,2.58170331 37.5255067,1.705838 38.3232569,1.02428395 C39.1180779,0.341753463 40.17849,0.000976438467 41.5044935,0.000976438467 C42.6869604,0.000976438467 43.6692575,0.207004955 44.4533376,0.618085549 L43.9328959,2.3151356 C43.2005671,1.91674871 42.3725473,1.71755526 41.4459072,1.71755526 C40.7135783,1.71755526 40.1413854,1.89819638 39.7312812,2.25752573 C39.3846456,2.57877399 39.2108395,2.97032582 39.2108395,3.43413409 C39.2108395,3.94774072 39.4090565,4.37249145 39.8074434,4.70643341 C40.1540791,5.01498796 40.7838819,5.34892992 41.6978283,5.70923571 C42.8158503,6.15937385 43.6370351,6.68567418 44.1652883,7.28911315 C44.6915886,7.89059925 44.9542506,8.64343331 44.9542506,9.5417567 L44.9542506,9.5417567 Z" id="path20"></path>
                                <path d="M51.8371653,5.37822307 L49.5425349,5.37822307 L49.5425349,9.92744989 C49.5425349,11.0845295 49.9467804,11.662581 50.7572244,11.662581 C51.1292474,11.662581 51.437802,11.6303586 51.6819116,11.5659136 L51.7395215,13.1467675 C51.3294173,13.3000684 50.7894468,13.377207 50.1205865,13.377207 C49.2984253,13.377207 48.6559288,13.1262623 48.1921205,12.6253494 C47.7302651,12.12346 47.4978728,11.28177 47.4978728,10.0993031 L47.4978728,5.3762702 L46.1308589,5.3762702 L46.1308589,3.81396865 L47.4978728,3.81396865 L47.4978728,2.09836626 L49.5425349,1.48125715 L49.5425349,3.81396865 L51.8371653,3.81396865 L51.8371653,5.37822307 Z" id="path22"></path>
                                <path d="M62.1903424,8.42373465 C62.1903424,9.86398139 61.7782853,11.0464484 60.9561242,11.9711356 C60.093929,12.9231631 58.9495431,13.3977122 57.5229665,13.3977122 C56.1481411,13.3977122 55.0535536,12.9417154 54.2372511,12.0297219 C53.4209485,11.1177284 53.0127972,9.96650743 53.0127972,8.57898837 C53.0127972,7.12702437 53.4326658,5.93772232 54.2753322,5.01303509 C55.1160457,4.08737142 56.2506672,3.62453959 57.6772438,3.62453959 C59.0520691,3.62453959 60.1583739,4.08053635 60.9932288,4.99350632 C61.7919555,5.87913601 62.1903424,7.02254545 62.1903424,8.42373465 L62.1903424,8.42373465 Z M60.0304605,8.49110891 C60.0304605,7.62696086 59.8459136,6.88584407 59.4719377,6.26775852 C59.0354697,5.51980665 58.4115255,5.14680716 57.6030345,5.14680716 C56.7662267,5.14680716 56.1305653,5.52078309 55.6940973,6.26775852 C55.3201213,6.88682051 55.1355745,7.63965456 55.1355745,8.53016644 C55.1355745,9.39431449 55.3201213,10.1354313 55.6940973,10.7525404 C56.1442354,11.5004923 56.7730618,11.8734918 57.5844821,11.8734918 C58.379303,11.8734918 59.0032472,11.4926808 59.4533854,10.7330116 C59.8371257,10.1032088 60.0304605,9.35428051 60.0304605,8.49110891 L60.0304605,8.49110891 Z" id="path24"></path>
                                <path d="M68.957061,5.64674365 C68.7510324,5.60866255 68.5313338,5.58913378 68.3008943,5.58913378 C67.5685655,5.58913378 67.0022311,5.86546587 66.6038442,6.41910648 C66.2572086,6.90732571 66.0834025,7.52443482 66.0834025,8.26945737 L66.0834025,13.1858251 L64.0026122,13.1858251 L64.0221409,6.76671857 C64.0221409,5.68677763 63.9957771,4.70350409 63.9440259,3.81689797 L65.7572721,3.81689797 L65.8334343,5.60963899 L65.8910442,5.60963899 C66.1107428,4.99350632 66.4573785,4.49747558 66.9319276,4.12545252 C67.3957358,3.79053413 67.8966488,3.62356315 68.4366193,3.62356315 C68.6289776,3.62356315 68.8027837,3.63723329 68.957061,3.66164425 L68.957061,5.64674365 Z" id="path26"></path>
                                <path d="M78.2674017,8.05757023 C78.2674017,8.43056972 78.2429908,8.74498291 78.1912395,9.00178622 L71.9459391,9.00178622 C71.9703501,9.92744989 72.2720695,10.6353678 72.852074,11.123587 C73.3783743,11.560055 74.0589519,11.7787772 74.8947833,11.7787772 C75.8194705,11.7787772 76.6631133,11.631335 77.421806,11.3354742 L77.7479365,12.7806031 C76.8613303,13.1672727 75.8145883,13.3596311 74.6067339,13.3596311 C73.1537935,13.3596311 72.0133134,12.9319511 71.1833407,12.0775674 C70.3553208,11.2231837 69.9403345,10.0758685 69.9403345,8.63659824 C69.9403345,7.22369178 70.3260277,6.04708342 71.0983905,5.10872606 C71.9068816,4.10690019 72.9995162,3.60598726 74.3743416,3.60598726 C75.724756,3.60598726 76.747087,4.10690019 77.4413348,5.10872606 C77.9910696,5.90452341 78.2674017,6.88877338 78.2674017,8.05757023 L78.2674017,8.05757023 Z M76.2823023,7.51759975 C76.2959725,6.90049064 76.1602475,6.36735524 75.8780568,5.91721711 C75.517751,5.3381891 74.9641104,5.04916331 74.2190879,5.04916331 C73.5385102,5.04916331 72.9848696,5.33135403 72.5620718,5.89768834 C72.2154361,6.34782647 72.0094076,6.88779694 71.9459391,7.51662332 L76.2823023,7.51662332 L76.2823023,7.51759975 Z" id="path28"></path>
                            </g>
                            <g id="g60" transform="translate(30.320187, 0.191964)">
                                <g id="g58">
                                    <path d="M5.90745272,3.91454181 C5.90745272,5.06380989 5.56276994,5.92893437 4.87438083,6.50991526 C4.23676651,7.04597998 3.33063161,7.31450055 2.15695257,7.31450055 C1.57499525,7.31450055 1.07701163,7.28911315 0.660072403,7.23833835 L0.660072403,0.958862574 C1.20394863,0.870983112 1.78981171,0.826066943 2.42254384,0.826066943 C3.54056588,0.826066943 4.38323228,1.06920012 4.95151946,1.55546648 C5.58815734,2.10520133 5.90745272,2.8912343 5.90745272,3.91454181 Z M4.82848822,3.94285853 C4.82848822,3.19783598 4.63124765,2.62661948 4.23676651,2.22823258 C3.84228537,1.83082212 3.26618667,1.63162868 2.50749398,1.63162868 C2.18526929,1.63162868 1.91089008,1.65311032 1.68337992,1.69802649 L1.68337992,6.47183416 C1.80934048,6.49136293 2.03977996,6.50015087 2.37469835,6.50015087 C3.157802,6.50015087 3.76221741,6.28240509 4.18794458,5.84691354 C4.61367175,5.41142198 4.82848822,4.77673698 4.82848822,3.94285853 L4.82848822,3.94285853 Z" id="path32"></path>
                                    <path d="M11.6284057,4.91832056 C11.6284057,5.62623844 11.4262829,6.20624289 11.0220374,6.66126322 C10.5982631,7.12897725 10.036811,7.36234604 9.33572818,7.36234604 C8.66003276,7.36234604 8.12201517,7.13874163 7.72069896,6.68957994 C7.32035918,6.24139468 7.1201893,5.67603681 7.1201893,4.99448276 C7.1201893,4.28168268 7.32621782,3.69679603 7.74022773,3.24275215 C8.15423764,2.78870826 8.71080756,2.5611981 9.41189038,2.5611981 C10.0875858,2.5611981 10.6304856,2.78480251 11.0415662,3.23298776 C11.4321416,3.66847932 11.6284057,4.23090788 11.6284057,4.91832056 L11.6284057,4.91832056 Z M10.5670171,4.95151946 C10.5670171,4.52676873 10.4752319,4.16255718 10.2926379,3.85888482 C10.0778214,3.49174396 9.77219617,3.30817353 9.37478572,3.30817353 C8.96370512,3.30817353 8.65124481,3.49174396 8.43642835,3.85888482 C8.25285792,4.16255718 8.16204914,4.53262736 8.16204914,4.9700718 C8.16204914,5.39482253 8.25383436,5.75903408 8.43642835,6.06270644 C8.65807988,6.4298473 8.96663444,6.61341773 9.36502133,6.61341773 C9.75559672,6.61341773 10.0621984,6.42691799 10.2828735,6.05294205 C10.4723026,5.74341106 10.5670171,5.3762702 10.5670171,4.95151946 Z" id="path34"></path>
                                    <path d="M19.2993063,2.65493619 L17.8590596,7.25786712 L16.9216786,7.25786712 L16.3250747,5.25909758 C16.1737268,4.76013752 16.0506955,4.26410678 15.9550045,3.7719818 L15.9364522,3.7719818 C15.8475963,4.27777692 15.7245651,4.77283123 15.566382,5.25909758 L14.9326735,7.25786712 L13.9845517,7.25786712 L12.6302316,2.65493619 L13.6818558,2.65493619 L14.2022975,4.84313479 C14.3282581,5.36064718 14.4317605,5.85374861 14.5147578,6.32048619 L14.5333101,6.32048619 C14.6094723,5.93576944 14.7354329,5.44559733 14.9131447,4.85289918 L15.566382,2.65591263 L16.4002605,2.65591263 L17.0261575,4.80603013 C17.1775055,5.33037759 17.3005368,5.83519628 17.3952513,6.32146263 L17.423568,6.32146263 C17.4928951,5.84788998 17.597374,5.34307129 17.7360283,4.80603013 L18.2945511,2.65591263 L19.2993063,2.65591263 L19.2993063,2.65493619 Z" id="path36"></path>
                                    <path d="M24.6042965,7.25786712 L23.580989,7.25786712 L23.580989,4.62148326 C23.580989,3.80908646 23.2724344,3.40288806 22.6533724,3.40288806 C22.3497001,3.40288806 22.104614,3.51420204 21.9142085,3.73780645 C21.7257559,3.96141086 21.6300649,4.22504925 21.6300649,4.52676873 L21.6300649,7.25689068 L20.6067574,7.25689068 L20.6067574,3.97019881 C20.6067574,3.56595328 20.5940637,3.12753241 20.5696527,2.65298331 L21.4689526,2.65298331 L21.5167981,3.37261846 L21.5451148,3.37261846 C21.6642403,3.14901406 21.8419521,2.96446718 22.0753209,2.81702498 C22.3526294,2.64517181 22.6631368,2.55826878 23.0029374,2.55826878 C23.4325703,2.55826878 23.7899468,2.69692304 24.0740904,2.97520801 C24.4275611,3.31598503 24.6042965,3.82470947 24.6042965,4.50040489 L24.6042965,7.25786712 Z" id="path38"></path>
                                    <polygon id="path40" points="27.4262037 7.25786712 26.4038726 7.25786712 26.4038726 0.542899787 27.4262037 0.542899787"></polygon>
                                    <path d="M33.450829,4.91832056 C33.450829,5.62623844 33.2487062,6.20624289 32.8444607,6.66126322 C32.4206864,7.12897725 31.8582579,7.36234604 31.1581515,7.36234604 C30.4814796,7.36234604 29.943462,7.13874163 29.5431222,6.68957994 C29.1427825,6.24139468 28.9426126,5.67603681 28.9426126,4.99448276 C28.9426126,4.28168268 29.1486411,3.69679603 29.562651,3.24275215 C29.9766609,2.78870826 30.5332309,2.5611981 31.2333372,2.5611981 C31.9100091,2.5611981 32.4519324,2.78480251 32.8639895,3.23298776 C33.2545649,3.66847932 33.450829,4.23090788 33.450829,4.91832056 L33.450829,4.91832056 Z M32.3884639,4.95151946 C32.3884639,4.52676873 32.2966787,4.16255718 32.1140847,3.85888482 C31.9002447,3.49174396 31.593643,3.30817353 31.197209,3.30817353 C30.785152,3.30817353 30.4726917,3.49174396 30.2588516,3.85888482 C30.0752812,4.16255718 29.9844724,4.53262736 29.9844724,4.9700718 C29.9844724,5.39482253 30.0762577,5.75903408 30.2588516,6.06270644 C30.4805032,6.4298473 30.7890577,6.61341773 31.1874446,6.61341773 C31.57802,6.61341773 31.8836453,6.42691799 32.1043203,6.05294205 C32.2947258,5.74341106 32.3884639,5.3762702 32.3884639,4.95151946 L32.3884639,4.95151946 Z" id="path42"></path>
                                    <path d="M38.4033249,7.25786712 L37.4844963,7.25786712 L37.4083341,6.72766104 L37.3800174,6.72766104 C37.0656042,7.15045889 36.6174189,7.36234604 36.0354616,7.36234604 C35.6009465,7.36234604 35.2494286,7.22271534 34.9848138,6.94540681 C34.74461,6.69348569 34.624508,6.38004894 34.624508,6.00802589 C34.624508,5.44559733 34.8588533,5.01694084 35.330473,4.72010355 C35.8011164,4.42326625 36.4631417,4.27777692 37.3155724,4.28461199 L37.3155724,4.19868541 C37.3155724,3.59231712 36.9972535,3.28962119 36.3596392,3.28962119 C35.9055953,3.28962119 35.5052555,3.40386449 35.1595963,3.63039822 L34.9516149,2.95860855 C35.379295,2.69399373 35.9075482,2.5611981 36.5305159,2.5611981 C37.7334881,2.5611981 38.3369271,3.1958831 38.3369271,4.46525311 L38.3369271,6.16035029 C38.3369271,6.6202528 38.3593852,6.98641723 38.4033249,7.25786712 Z M37.3409598,5.67603681 L37.3409598,4.96616604 C36.212197,4.94663727 35.6478155,5.25616827 35.6478155,5.89378258 C35.6478155,6.13398645 35.7122605,6.31365113 35.8440797,6.43375306 C35.9758989,6.55385499 36.1438463,6.61341773 36.3440162,6.61341773 C36.568597,6.61341773 36.7785313,6.54213773 36.9699132,6.40055415 C37.1622716,6.25799413 37.2804207,6.07735302 37.3243604,5.85570148 C37.3351012,5.80590312 37.3409598,5.74536394 37.3409598,5.67603681 Z" id="path44"></path>
                                    <path d="M44.218016,7.25786712 L43.3099282,7.25786712 L43.2620827,6.5187032 L43.233766,6.5187032 C42.9437638,7.08113176 42.4496859,7.36234604 41.7554382,7.36234604 C41.2008211,7.36234604 40.7389657,7.14460026 40.3728013,6.7091087 C40.0066369,6.27361715 39.8240429,5.70825928 39.8240429,5.01401153 C39.8240429,4.26898898 40.0222599,3.66555 40.4206468,3.20467105 C40.80634,2.77503812 41.2789362,2.56022166 41.8413647,2.56022166 C42.4594503,2.56022166 42.8920125,2.76820305 43.138075,3.18514228 L43.1576038,3.18514228 L43.1576038,0.542899787 L44.1818877,0.542899787 L44.1818877,6.01779027 C44.1818877,6.46597553 44.193605,6.879009 44.218016,7.25786712 L44.218016,7.25786712 Z M43.1576038,5.31670745 L43.1576038,4.54922682 C43.1576038,4.41643118 43.1478394,4.30902295 43.1292871,4.22700212 C43.0716772,3.98093963 42.9476695,3.77393467 42.7592169,3.6069637 C42.5688114,3.43999272 42.3393484,3.35601901 42.0747335,3.35601901 C41.6929461,3.35601901 41.3941559,3.50736697 41.1744573,3.81103934 C40.9567115,4.1147117 40.8463739,4.50235777 40.8463739,4.97593043 C40.8463739,5.43095075 40.9508529,5.80004449 41.1607871,6.08418809 C41.3824387,6.38688401 41.6812288,6.53823197 42.0552048,6.53823197 C42.3910996,6.53823197 42.6596202,6.41227141 42.8636958,6.15937385 C43.0609364,5.92600505 43.1576038,5.64479078 43.1576038,5.31670745 L43.1576038,5.31670745 Z" id="path46"></path>
                                    <path d="M52.9698339,4.91832056 C52.9698339,5.62623844 52.7677112,6.20624289 52.3634657,6.66126322 C51.9396914,7.12897725 51.3792157,7.36234604 50.6771564,7.36234604 C50.0024374,7.36234604 49.4644198,7.13874163 49.0621272,6.68957994 C48.6617874,6.24139468 48.4616175,5.67603681 48.4616175,4.99448276 C48.4616175,4.28168268 48.6676461,3.69679603 49.081656,3.24275215 C49.4956659,2.78870826 50.0522358,2.5611981 50.7542951,2.5611981 C51.429014,2.5611981 51.9728903,2.78480251 52.3829944,3.23298776 C52.7735698,3.66847932 52.9698339,4.23090788 52.9698339,4.91832056 L52.9698339,4.91832056 Z M51.9094218,4.95151946 C51.9094218,4.52676873 51.8176365,4.16255718 51.6350426,3.85888482 C51.4192497,3.49174396 51.1146009,3.30817353 50.716214,3.30817353 C50.3061098,3.30817353 49.9936495,3.49174396 49.7778566,3.85888482 C49.5942862,4.16255718 49.5034774,4.53262736 49.5034774,4.9700718 C49.5034774,5.39482253 49.5952626,5.75903408 49.7778566,6.06270644 C49.9995081,6.4298473 50.3080627,6.61341773 50.7064496,6.61341773 C51.097025,6.61341773 51.4046031,6.42691799 51.6252782,6.05294205 C51.8137308,5.74341106 51.9094218,5.3762702 51.9094218,4.95151946 L51.9094218,4.95151946 Z" id="path48"></path>
                                    <path d="M58.4720647,7.25786712 L57.4497336,7.25786712 L57.4497336,4.62148326 C57.4497336,3.80908646 57.1411791,3.40288806 56.5211406,3.40288806 C56.2174683,3.40288806 55.9723822,3.51420204 55.7829532,3.73780645 C55.5935241,3.96141086 55.4988096,4.22504925 55.4988096,4.52676873 L55.4988096,7.25689068 L54.4745256,7.25689068 L54.4745256,3.97019881 C54.4745256,3.56595328 54.4628084,3.12753241 54.4383974,2.65298331 L55.3367208,2.65298331 L55.3845663,3.37261846 L55.412883,3.37261846 C55.5329849,3.14901406 55.7106967,2.96446718 55.9430891,2.81702498 C56.221374,2.64517181 56.530905,2.55826878 56.8716821,2.55826878 C57.3003385,2.55826878 57.657715,2.69692304 57.9418586,2.97520801 C58.2963058,3.31598503 58.4720647,3.82470947 58.4720647,4.50040489 L58.4720647,7.25786712 Z" id="path50"></path>
                                    <path d="M65.3588852,3.42144039 L64.2320752,3.42144039 L64.2320752,5.65748448 C64.2320752,6.22577166 64.4322451,6.50991526 64.8286791,6.50991526 C65.0122495,6.50991526 65.1645739,6.49429224 65.2846759,6.46206977 L65.3110397,7.23833835 C65.108917,7.31450055 64.8433257,7.35258165 64.5162188,7.35258165 C64.1119733,7.35258165 63.7975601,7.22955041 63.5700499,6.98348791 C63.3415633,6.73742542 63.2282965,6.32341551 63.2282965,5.74243462 L63.2282965,3.42144039 L62.5555304,3.42144039 L62.5555304,2.65493619 L63.2282965,2.65493619 L63.2282965,1.81129336 L64.2310988,1.50859743 L64.2310988,2.65395975 L65.3579088,2.65395975 L65.3579088,3.42144039 L65.3588852,3.42144039 Z" id="path52"></path>
                                    <path d="M70.7761658,7.25786712 L69.7518819,7.25786712 L69.7518819,4.64101203 C69.7518819,3.81592153 69.4433273,3.40288806 68.8252418,3.40288806 C68.3506927,3.40288806 68.0265151,3.64211548 67.8488033,4.12057033 C67.8185337,4.22114349 67.8009578,4.34417474 67.8009578,4.48868763 L67.8009578,7.25689068 L66.7786267,7.25689068 L66.7786267,0.542899787 L67.8009578,0.542899787 L67.8009578,3.31696147 L67.8204866,3.31696147 C68.1427113,2.81214278 68.6045667,2.56022166 69.2031234,2.56022166 C69.6268977,2.56022166 69.9774392,2.69887592 70.2557241,2.97716088 C70.6023598,3.32379654 70.7761658,3.83935605 70.7761658,4.5209101 L70.7761658,7.25786712 Z" id="path54"></path>
                                    <path d="M76.3643232,4.73865588 C76.3643232,4.92222631 76.350653,5.07650359 76.3262421,5.20246415 L73.257296,5.20246415 C73.2709661,5.65748448 73.4174319,6.00412013 73.7015755,6.24432399 C73.9613081,6.45914046 74.2962265,6.56654869 74.7063306,6.56654869 C75.1603745,6.56654869 75.5743844,6.49429224 75.9473839,6.34880291 L76.1075198,7.05965011 C75.6710519,7.24907918 75.1574452,7.34379371 74.5627942,7.34379371 C73.8499941,7.34379371 73.288542,7.13385944 72.8823436,6.7139909 C72.4741923,6.29412236 72.2720695,5.73071736 72.2720695,5.02377591 C72.2720695,4.32952816 72.4605222,3.75147659 72.8403567,3.29059763 C73.2367908,2.79847265 73.7728555,2.55241015 74.4495273,2.55241015 C75.1115526,2.55241015 75.6144184,2.79847265 75.954219,3.29059763 C76.2285982,3.68117302 76.3643232,4.16451006 76.3643232,4.73865588 L76.3643232,4.73865588 Z M75.3878847,4.47404105 C75.3956962,4.17036869 75.3283219,3.90868318 75.1896677,3.68800809 C75.0119559,3.40386449 74.7414824,3.26130448 74.375318,3.26130448 C74.0413761,3.26130448 73.7689497,3.39995874 73.5609683,3.6782437 C73.391068,3.89989524 73.2904949,4.16451006 73.257296,4.47404105 L75.3878847,4.47404105 Z" id="path56"></path>
                                </g>
                            </g>
                        </g>
                    </g>
                </g>
            </g>
        </g>
    </g>
</svg>