<svg xmlns="http://www.w3.org/2000/svg" width="171" height="47" viewBox="0 0 171 47"><g><g><g><path fill="#232325" d="M36.682 21.366a3.26 3.26 0 0 0 .926-1.185c.212-.464.319-.983.319-1.563 0-1.184-.39-2.06-1.168-2.632-.778-.572-1.91-.858-3.396-.858h-3.055v7.262h2.901c.74 0 1.403-.088 1.988-.265.585-.176 1.08-.429 1.485-.759z"/></g><g><path fill="#232325" d="M14.902 15.908c-.056-.169-.11-.347-.166-.535-.056.187-.11.366-.165.535-.056.168-.11.323-.165.464l-3.409 8.39h7.477l-3.408-8.402a5.952 5.952 0 0 1-.164-.452z"/></g><g><path fill="#232325" d="M39.57 30.804a.68.68 0 0 1-.325-.07.83.83 0 0 1-.266-.236l-5.342-6.744a1.192 1.192 0 0 0-.43-.365c-.154-.07-.39-.104-.714-.104H30.31v7.52h-1.203V14.178h4.258c1.926 0 3.365.371 4.316 1.112.952.74 1.427 1.826 1.427 3.26a4.43 4.43 0 0 1-.33 1.738c-.22.525-.537.985-.95 1.381-.412.396-.91.72-1.491.975a6.675 6.675 0 0 1-1.97.5c.188.117.357.274.507.47l5.743 7.19H39.57zm-18.34 0c-.109 0-.199-.029-.27-.089a.6.6 0 0 1-.165-.229l-1.97-4.829H10.63l-1.958 4.83a.52.52 0 0 1-.165.224.442.442 0 0 1-.283.094h-.921l6.828-16.627h1.203l6.828 16.627h-.931zM0 47h47.172V0H0z"/></g><g><path fill="#232325" d="M64.674 14.178v1.024h-5.862v15.604H57.61V15.202h-5.896v-1.024h12.961z"/></g><g><path fill="#232325" d="M84.523 14.178v1h-8.786V21.9h7.312v.975h-7.312v6.933h8.786v.999h-10V14.179h10z"/></g><g><path fill="#232325" d="M104.876 14.178v1H96.09v6.991h7.607v1H96.09v7.638h-1.214V14.18h10z"/></g><g><path fill="#232325" d="M115.47 24.764l3.404-8.39c.055-.14.109-.295.165-.464.055-.168.109-.347.165-.534.055.188.109.366.165.534.055.169.109.32.164.453l3.404 8.401zm11.168 6.04l-6.828-16.626h-1.203l-6.828 16.627h.92c.11 0 .205-.032.284-.094a.52.52 0 0 0 .165-.225l1.958-4.829h8.196l1.97 4.83a.6.6 0 0 0 .164.228c.071.06.162.089.27.089z"/></g><g><path fill="#232325" d="M147.795 28.008a.27.27 0 0 1 .2.082l.471.506c-.347.368-.723.699-1.132.992a6.97 6.97 0 0 1-1.337.752 7.755 7.755 0 0 1-1.592.482 9.893 9.893 0 0 1-1.905.17c-1.156 0-2.215-.2-3.177-.604a7.071 7.071 0 0 1-2.478-1.715c-.689-.74-1.224-1.635-1.61-2.685-.386-1.05-.577-2.217-.577-3.501 0-1.262.197-2.413.594-3.454.397-1.042.956-1.938 1.675-2.685a7.468 7.468 0 0 1 2.582-1.739c1.004-.411 2.11-.617 3.32-.617.606 0 1.16.045 1.663.135.503.091.973.22 1.41.388.436.17.846.38 1.232.63s.762.541 1.132.87l-.366.528c-.063.094-.16.142-.295.142-.07 0-.16-.041-.27-.123-.11-.083-.25-.184-.42-.306a8.636 8.636 0 0 0-.613-.4 4.979 4.979 0 0 0-.855-.399 7.161 7.161 0 0 0-1.144-.305 7.923 7.923 0 0 0-1.474-.124c-1.013 0-1.945.176-2.795.523-.85.348-1.58.846-2.193 1.491-.614.647-1.09 1.43-1.433 2.35-.342.92-.512 1.953-.512 3.097 0 1.175.169 2.224.507 3.15.338.923.806 1.704 1.404 2.343a6.072 6.072 0 0 0 2.116 1.468 6.771 6.771 0 0 0 2.648.512c.596 0 1.129-.04 1.598-.118a6.284 6.284 0 0 0 1.291-.352 5.793 5.793 0 0 0 1.096-.575 8.392 8.392 0 0 0 1.003-.8.817.817 0 0 1 .112-.076.217.217 0 0 1 .124-.033z"/></g><g><path fill="#232325" d="M170.38 14.178v1.024h-5.862v15.604h-1.203V15.202h-5.897v-1.024h12.962z"/></g></g></g></svg>