<?xml version="1.0" encoding="UTF-8"?>
<svg width="180px" height="22px" viewBox="0 0 180 22" version="1.1" xmlns="http://www.w3.org/2000/svg" xmlns:xlink="http://www.w3.org/1999/xlink">
    <!-- Generator: Sketch 47 (45396) - http://www.bohemiancoding.com/sketch -->
    <title>logo/culture.ru</title>
    <desc>Created with Sketch.</desc>
    <defs>
        <polygon id="path-1" points="1.77414901e-19 0.367085714 1.77414901e-19 20.0822286 15.3932727 20.0822286 15.3932727 0.367085714"></polygon>
        <polygon id="path-3" points="0.327896104 22 20.6462338 22 20.6462338 0.651514286 0.327896104 0.651514286"></polygon>
    </defs>
    <g id="Page-1" stroke="none" stroke-width="1" fill="none" fill-rule="evenodd">
        <g id="Desktop-About-02" transform="translate(-692.000000, -1082.000000)">
            <g id="Group-16" transform="translate(293.000000, 1054.000000)">
                <g id="Group-15" transform="translate(77.000000, 15.000000)">
                    <g id="logo/culture.ru" transform="translate(322.000000, 13.000000)">
                        <g>
                            <g id="Group-3" transform="translate(0.000000, 1.100000)">
                                <mask id="mask-2" fill="white">
                                    <use xlink:href="#path-1"></use>
                                </mask>
                                <g id="Clip-2"></g>
                                <path d="M3.74563636,0.367085714 L3.74563636,8.81822857 L4.36418182,8.81822857 L10.746,0.367085714 L15.3605455,0.367085714 L7.80381818,9.26137143 C10.8376364,9.78308571 12.1074545,11.6625143 13.0369091,14.1422286 C13.8092727,16.2228 14.4572727,18.2122286 15.3932727,20.0822286 L11.3023636,20.0822286 C10.5921818,18.7402286 10.0947273,17.0996571 9.56781818,15.6099429 C8.73,13.2088 7.61727273,11.4833714 4.64236364,11.4833714 L3.74563636,11.4833714 L3.74563636,20.0822286 L-0.00163636364,20.0822286 L-0.00163636364,0.367085714 L3.74563636,0.367085714 Z" id="Fill-1" fill="#333333" mask="url(#mask-2)"></path>
                            </g>
                            <path d="M21.51379,2.2 L24.8439769,9.71623529 C25.3722347,10.9896471 25.7831019,12.1419294 26.2495752,13.3004235 L26.3391628,13.3004235 C26.6295502,12.4028235 26.9817221,11.1604706 27.4512846,9.63237647 L30.0215216,2.2 L33.8181818,2.2 L29.9350233,11.9120941 C28.7920092,14.7446588 27.5346937,17.6921412 26.1352738,19.5184 C24.8439769,21.1024 23.2993633,22 21.2203134,22 C20.3738651,22 19.8486965,21.9161412 19.3822232,21.7453176 L19.6726106,18.8816941 C19.9629979,18.9655529 20.3460621,18.9966118 20.9052122,18.9966118 C22.5672164,18.9966118 23.6206429,17.6020706 24.1180085,16.5088 C24.2910052,16.1050353 24.2353991,15.8441412 24.0284209,15.4652235 L17.4545455,2.2 L21.51379,2.2 Z" id="Fill-4" fill="#333333"></path>
                            <path d="M49.0909091,2.2 L49.0909091,21.7383672 L45.4711309,21.7383672 L45.4711309,5.12468145 L40.0539028,5.12468145 L40.0539028,10.3448797 C40.0539028,15.0418122 39.6154245,19.2746579 36.7015653,21.0469089 C35.8463771,21.5639453 34.5496009,22 33.1719706,22 L32.7272727,19.1313827 C33.6104488,18.9849929 34.4065513,18.5769703 34.9041153,18.0848513 C36.2879652,16.7206229 36.4963201,13.6495517 36.4963201,10.6065125 L36.4963201,2.2 L49.0909091,2.2 Z" id="Fill-6" fill="#333333"></path>
                            <path d="M57.1406673,19.1508993 C57.6873514,19.2352477 58.2915813,19.2727359 59.0492663,19.2727359 C61.5908681,19.2727359 63.7360439,18.0762386 63.7360439,15.5207952 C63.7360439,12.9028716 61.5908681,11.884443 59.0748422,11.884443 C58.4098697,11.884443 57.7448971,11.9094352 57.1406673,12.0000316 L57.1406673,19.1508993 Z M57.1406673,2.2 L57.1406673,9.23527927 C57.77367,9.15093089 58.8670383,9.08845062 59.6534962,9.08845062 C63.915075,9.08845062 67.6363636,10.981603 67.6363636,15.3427264 C67.6363636,17.2046387 67.0353308,18.5698328 66.034675,19.5913853 C64.2187884,21.3908173 61.0441839,22 58.0486105,22 C55.9641774,22 54.3912616,21.8594194 53.4545455,21.7375828 L53.4545455,2.2 L57.1406673,2.2 Z" id="Fill-8" fill="#333333"></path>
                            <polygon id="Fill-10" fill="#333333" points="72.3064148 5.22697274 66.5454545 5.22697274 66.5454545 2.2 81.8181818 2.2 81.8181818 5.22697274 75.9938098 5.22697274 75.9938098 22 72.3064148 22"></polygon>
                            <path d="M86.9698914,2.2 L90.3049975,9.71623529 C90.8268799,10.9896471 91.237592,12.1419294 91.7038892,13.3004235 L91.790355,13.3004235 C92.0837208,12.4028235 92.4357597,11.1604706 92.9051451,9.63237647 L95.474412,2.2 L99.2727273,2.2 L95.3879463,11.9120941 C94.2484517,14.7446588 92.9885227,17.6921412 91.5865429,19.5184 C90.3049975,21.1024 88.7547908,22 86.6796136,22 C85.8303968,22 85.3054264,21.9161412 84.8422172,21.7453176 L85.1294069,18.8816941 C85.4196847,18.9655529 85.8026043,18.9966118 86.3584553,18.9966118 C88.0229203,18.9966118 89.0759491,17.6020706 89.5700389,16.5088 C89.7429704,16.1050353 89.6873853,15.8441412 89.4835732,15.4652235 L82.9090909,2.2 L86.9698914,2.2 Z" id="Fill-12" fill="#333333"></path>
                            <path d="M106.070988,10.6632653 C106.504805,10.7791647 107.082211,10.8104888 107.806259,10.8104888 C110.461101,10.8104888 112.08028,9.49487423 112.08028,7.19568106 C112.08028,5.00925486 110.580248,3.84086379 108.123984,3.84086379 C107.140257,3.84086379 106.446759,3.92857143 106.070988,4.01941149 L106.070988,10.6632653 Z M102.545455,1.50408163 C103.816357,1.2785477 105.579124,1.1 107.974287,1.1 C110.580248,1.1 112.486602,1.65757 113.733065,2.70379687 C114.88482,3.67171334 115.636364,5.21286189 115.636364,7.04845752 C115.636364,8.9122449 115.058958,10.4627907 113.965249,11.5090176 C112.544648,12.9405316 110.320569,13.6046037 107.806259,13.6046037 C107.140257,13.6046037 106.529246,13.576412 106.070988,13.4887043 L106.070988,20.9 L102.545455,20.9 L102.545455,1.50408163 Z" id="Fill-14" fill="#333333"></path>
                            <path d="M126.782338,13.6526937 L125.217662,8.77685687 C124.834286,7.57446605 124.51013,6.22059292 124.22026,5.07816385 L124.157922,5.07816385 C123.861818,6.22059292 123.568831,7.5997131 123.213506,8.77685687 L121.673766,13.6526937 L126.782338,13.6526937 Z M121.090909,16.3825311 L119.376623,22 L115.636364,22 L122.004156,2.2 L126.635844,2.2 L133.090909,22 L129.197922,22 L127.402597,16.3825311 L121.090909,16.3825311 Z" id="Fill-16" fill="#333333"></path>
                            <path d="M136.363636,19.8029932 C136.363636,18.5159184 137.280061,17.6 138.545455,17.6 C139.838159,17.6 140.727273,18.494966 140.727273,19.8029932 C140.727273,21.0541497 139.86547,22 138.545455,22 C137.25275,22 136.363636,21.0541497 136.363636,19.8029932" id="Fill-18" fill="#333333"></path>
                            <path d="M147.52471,10.6632653 C147.961481,10.7791647 148.538752,10.8104888 149.259577,10.8104888 C151.9138,10.8104888 153.53871,9.49487423 153.53871,7.19568106 C153.53871,5.00925486 152.035973,3.84086379 149.577228,3.84086379 C148.596784,3.84086379 147.900395,3.92857143 147.52471,4.01941149 L147.52471,10.6632653 Z M144,1.50408163 C145.270606,1.2785477 147.032961,1.1 149.433674,1.1 C152.035973,1.1 153.944937,1.65757 155.185,2.70379687 C156.339541,3.67171334 157.090909,5.21286189 157.090909,7.04845752 C157.090909,8.9122449 156.513638,10.4627907 155.41713,11.5090176 C153.999915,12.9405316 151.776354,13.6046037 149.259577,13.6046037 C148.596784,13.6046037 147.985916,13.576412 147.52471,13.4887043 L147.52471,20.9 L144,20.9 L144,1.50408163 Z" id="Fill-20" fill="#EC2224"></path>
                            <g id="Group-24" transform="translate(159.272727, 0.000000)">
                                <mask id="mask-4" fill="white">
                                    <use xlink:href="#path-3"></use>
                                </mask>
                                <g id="Clip-23"></g>
                                <path d="M12.1814026,17.6418 C14.4224416,17.4406571 16.9595844,15.7686571 16.9595844,11.2932286 C16.9595844,6.73294286 14.5128312,5.09551429 12.1814026,4.88494286 L12.1814026,17.6418 Z M8.75906494,4.88494286 C6.63958442,5.09551429 3.98088312,6.73294286 3.98088312,11.3246571 C3.98088312,15.5675143 6.45880519,17.4092286 8.75906494,17.6418 L8.75906494,4.88494286 Z M12.2125714,0.651514286 L12.2125714,2.39894286 C16.4297143,2.66294286 20.6468571,5.12694286 20.6468571,11.2932286 C20.6468571,17.4406571 16.4889351,19.8386571 12.1502338,20.1906571 L12.1502338,22.0009429 L8.73724675,22.0009429 L8.73724675,20.1906571 C4.48581818,19.8952286 0.327896104,17.5569429 0.327896104,11.4126571 C0.327896104,5.09551429 4.95646753,2.66294286 8.79023377,2.39894286 L8.79023377,0.651514286 L12.2125714,0.651514286 Z" id="Fill-22" fill="#EC2224" mask="url(#mask-4)"></path>
                            </g>
                        </g>
                    </g>
                </g>
            </g>
        </g>
    </g>
</svg>