<?xml version="1.0" encoding="UTF-8"?>
<svg width="133px" height="38px" viewBox="0 0 133 38" version="1.1" xmlns="http://www.w3.org/2000/svg" xmlns:xlink="http://www.w3.org/1999/xlink">
    <!-- Generator: Sketch 47 (45396) - http://www.bohemiancoding.com/sketch -->
    <title>Android</title>
    <desc>Created with Sketch.</desc>
    <defs>
        <path d="M17.2722887,9.43567857 L11.8037423,6.34469643 C11.8037423,6.34469643 1.84118557,0.712678571 1.25551546,0.381642857 C0.669845361,0.0506071429 0.0863092784,0.251178571 0.0863092784,0.942964286 C0.0863092784,2.09555357 0.0863092784,12.9679643 0.0863092784,12.9679643 C0.0863092784,12.9679643 0.0863092784,24.717875 0.0863092784,25.2369464 C0.0863092784,25.7555536 0.503391753,25.9791071 1.01223711,25.6917143 C1.52084536,25.4038571 11.8037423,19.5912321 11.8037423,19.5912321 L17.2720515,16.5004821 C17.2720515,16.5004821 21.9118866,13.8779643 22.5286186,13.5295179 C23.1453505,13.1806071 23.0860722,12.7023929 22.5656082,12.428 C22.0453814,12.153375 17.2722887,9.43567857 17.2722887,9.43567857 Z" id="path-1"></path>
        <linearGradient x1="49.9992999%" y1="-8.82589164e-05%" x2="49.9992999%" y2="99.9997352%" id="linearGradient-3">
            <stop stop-color="#257CB0" offset="0%"></stop>
            <stop stop-color="#4A93B5" offset="28.63%"></stop>
            <stop stop-color="#78BCBB" offset="76.7%"></stop>
            <stop stop-color="#89CFBD" offset="100%"></stop>
        </linearGradient>
        <path d="M17.2722887,9.43567857 L11.8037423,6.34469643 C11.8037423,6.34469643 1.84118557,0.712678571 1.25551546,0.381642857 C0.669845361,0.0506071429 0.0863092784,0.251178571 0.0863092784,0.942964286 C0.0863092784,2.09555357 0.0863092784,12.9679643 0.0863092784,12.9679643 C0.0863092784,12.9679643 0.0863092784,24.717875 0.0863092784,25.2369464 C0.0863092784,25.7555536 0.503391753,25.9791071 1.01223711,25.6917143 C1.52084536,25.4038571 11.8037423,19.5912321 11.8037423,19.5912321 L17.2720515,16.5004821 C17.2720515,16.5004821 21.9118866,13.8779643 22.5286186,13.5295179 C23.1453505,13.1806071 23.0860722,12.7023929 22.5656082,12.428 C22.0453814,12.153375 17.2722887,9.43567857 17.2722887,9.43567857 Z" id="path-4"></path>
        <linearGradient x1="-0.000413912995%" y1="50.0001752%" x2="100.000276%" y2="50.0001752%" id="linearGradient-6">
            <stop stop-color="#52C1AD" offset="0%"></stop>
            <stop stop-color="#DEE89A" offset="100%"></stop>
        </linearGradient>
        <path d="M17.2722887,9.43567857 L11.8037423,6.34469643 C11.8037423,6.34469643 1.84118557,0.712678571 1.25551546,0.381642857 C0.669845361,0.0506071429 0.0863092784,0.251178571 0.0863092784,0.942964286 C0.0863092784,2.09555357 0.0863092784,12.9679643 0.0863092784,12.9679643 C0.0863092784,12.9679643 0.0863092784,24.717875 0.0863092784,25.2369464 C0.0863092784,25.7555536 0.503391753,25.9791071 1.01223711,25.6917143 C1.52084536,25.4038571 11.8037423,19.5912321 11.8037423,19.5912321 L17.2720515,16.5004821 C17.2720515,16.5004821 21.9118866,13.8779643 22.5286186,13.5295179 C23.1453505,13.1806071 23.0860722,12.7023929 22.5656082,12.428 C22.0453814,12.153375 17.2722887,9.43567857 17.2722887,9.43567857 Z" id="path-7"></path>
        <linearGradient x1="50%" y1="0.000525734714%" x2="50%" y2="99.9996495%" id="linearGradient-9">
            <stop stop-color="#EC413D" offset="0%"></stop>
            <stop stop-color="#DA4452" offset="16.68%"></stop>
            <stop stop-color="#B0487A" offset="57.48%"></stop>
            <stop stop-color="#954A92" offset="86.19%"></stop>
            <stop stop-color="#8A4A9D" offset="100%"></stop>
        </linearGradient>
        <path d="M17.2722887,9.43567857 L11.8037423,6.34469643 C11.8037423,6.34469643 1.84118557,0.712678571 1.25551546,0.381642857 C0.669845361,0.0506071429 0.0863092784,0.251178571 0.0863092784,0.942964286 C0.0863092784,2.09555357 0.0863092784,12.9679643 0.0863092784,12.9679643 C0.0863092784,12.9679643 0.0863092784,24.717875 0.0863092784,25.2369464 C0.0863092784,25.7555536 0.503391753,25.9791071 1.01223711,25.6917143 C1.52084536,25.4038571 11.8037423,19.5912321 11.8037423,19.5912321 L17.2720515,16.5004821 C17.2720515,16.5004821 21.9118866,13.8779643 22.5286186,13.5295179 C23.1453505,13.1806071 23.0860722,12.7023929 22.5656082,12.428 C22.0453814,12.153375 17.2722887,9.43567857 17.2722887,9.43567857 Z" id="path-10"></path>
        <linearGradient x1="50.0002398%" y1="0.00164300736%" x2="50.0002398%" y2="100.000329%" id="linearGradient-12">
            <stop stop-color="#F58879" offset="0%"></stop>
            <stop stop-color="#F69079" offset="11.94%"></stop>
            <stop stop-color="#FCB877" offset="71.28%"></stop>
            <stop stop-color="#FEC874" offset="100%"></stop>
        </linearGradient>
    </defs>
    <g id="Page-1" stroke="none" stroke-width="1" fill="none" fill-rule="evenodd">
        <g id="Desktop-About-02" transform="translate(-652.000000, -2488.000000)">
            <g id="Скачайте-artefact" transform="translate(-134.000000, 2130.000000)">
                <g id="Group-6" transform="translate(630.000000, 358.000000)">
                    <g id="Android" transform="translate(156.000000, 0.000000)">
                        <g id="gplay">
                            <rect id="Rectangle-10" fill="#231F20" x="0" y="0" width="133" height="38" rx="4"></rect>
                            <g id="PLAY_2_" transform="translate(16.000000, 5.000000)">
                                <g id="Clipped">
                                    <mask id="mask-2" fill="white">
                                        <use xlink:href="#path-1"></use>
                                    </mask>
                                    <g id="SVGID_1_"></g>
                                    <polygon id="Shape" fill="url(#linearGradient-3)" fill-rule="nonzero" mask="url(#mask-2)" points="0.0865463918 -0.183160714 0.0865463918 12.9679643 0.0865463918 26.1193214 13.6337835 12.9681964"></polygon>
                                </g>
                                <g id="Clipped">
                                    <mask id="mask-5" fill="white">
                                        <use xlink:href="#path-4"></use>
                                    </mask>
                                    <g id="SVGID_1_"></g>
                                    <polygon id="Shape" fill="url(#linearGradient-6)" fill-rule="nonzero" mask="url(#mask-5)" points="17.2722887 9.43567857 11.8037423 6.34469643 0.0865463918 -0.278803571 0.0865463918 -0.183160714 13.6337835 12.9681964"></polygon>
                                </g>
                                <g id="Clipped">
                                    <mask id="mask-8" fill="white">
                                        <use xlink:href="#path-7"></use>
                                    </mask>
                                    <g id="SVGID_1_"></g>
                                    <polygon id="Shape" fill="url(#linearGradient-9)" fill-rule="nonzero" mask="url(#mask-8)" points="0.0865463918 26.1193214 0.0865463918 26.2149643 11.8037423 19.5912321 17.2720515 16.50025 13.6337835 12.9681964"></polygon>
                                </g>
                                <g id="Clipped">
                                    <mask id="mask-11" fill="white">
                                        <use xlink:href="#path-10"></use>
                                    </mask>
                                    <g id="SVGID_1_"></g>
                                    <polygon id="Shape" fill="url(#linearGradient-12)" fill-rule="nonzero" mask="url(#mask-11)" points="17.2722887 9.43567857 13.6337835 12.9681964 17.2720515 16.50025 23.5216495 12.9679643"></polygon>
                                </g>
                            </g>
                            <path d="M99.1708376,23.7710367 C98.7269907,23.7710367 98.3220269,23.6809325 97.9553257,23.5009515 C97.5886246,23.320743 97.280455,23.0436042 97.0316443,22.6699901 L96.9571872,22.6699901 C97.0068252,23.1077693 97.0316443,23.522795 97.0316443,23.9148395 L97.0316443,27 L96,27 L96,16.1367491 L96.8392968,16.1367491 L96.9820062,17.1629365 L97.0316443,17.1629365 C97.2972079,16.752234 97.6062048,16.4562097 97.9584281,16.2737258 C98.3106515,16.0912419 98.7149948,16 99.1706308,16 C100.074457,16 100.772079,16.3399388 101.263082,17.0193612 C101.754292,17.6987837 102,18.6521595 102,19.8785785 C102,21.1100033 101.750155,22.0663371 101.251086,22.7487175 C100.751603,23.4304154 100.058325,23.7710367 99.1708376,23.7710367 Z M99.0215098,16.9645251 C98.3251293,16.9645251 97.8215098,17.1768162 97.5106515,17.6007157 C97.1997932,18.0248428 97.0401241,18.6999421 97.0316443,19.625786 L97.0316443,19.8785785 C97.0316443,20.9322977 97.1913133,21.6858969 97.5106515,22.1398312 C97.8299897,22.5937655 98.3420889,22.8201638 99.0463289,22.8201638 C99.6353671,22.8201638 100.096587,22.5582699 100.430403,22.0337994 C100.763806,21.5095565 100.930714,20.7866747 100.930714,19.8649264 C100.930714,18.930436 100.763806,18.2127875 100.430403,17.7135736 C100.096794,17.2139045 99.6268873,16.9645251 99.0215098,16.9645251 Z" id="Shape" fill="#F9F9F9" fill-rule="nonzero"></path>
                            <polygon id="Shape" fill="#F9F9F9" fill-rule="nonzero" points="105 24 104 24 104 13 105 13"></polygon>
                            <path d="M111.160404,23.8587435 L110.934953,22.7582566 L110.880463,22.7582566 C110.507209,23.243034 110.135316,23.5713029 109.764332,23.7423594 C109.393575,23.9143544 108.930412,24 108.375525,24 C107.633784,24 107.05256,23.8024286 106.6314,23.4075204 C106.21024,23.0126122 106,22.4508711 106,21.7215932 C106,20.1604974 107.20831,19.3420543 109.624475,19.2664985 L110.89454,19.2240277 L110.89454,18.7444125 C110.89454,18.1376195 110.768078,17.6894468 110.515382,17.4005983 C110.26314,17.1110459 109.858554,16.9665044 109.303894,16.9665044 C108.680213,16.9665044 107.974799,17.1640758 107.187876,17.558984 L106.839596,16.6631079 C107.208537,16.4561506 107.611988,16.2940107 108.051538,16.1764533 C108.490635,16.058896 108.930639,16 109.372233,16 C110.264048,16 110.924963,16.2043761 111.355205,16.6135977 C111.784993,17.0228193 112,17.6788878 112,18.5820379 L112,23.8585088 L111.160404,23.8585088 L111.160404,23.8587435 Z M108.600749,23.0337303 C109.30571,23.0337303 109.859689,22.8338124 110.262686,22.4342113 C110.665002,22.0346102 110.866841,21.4747463 110.866841,20.7548542 L110.866841,20.0565495 L109.733227,20.1055904 C108.832331,20.1391447 108.183222,20.283217 107.784539,20.5401537 C107.386536,20.7963865 107.187422,21.195049 107.187422,21.7359066 C107.187422,22.1589723 107.311159,22.481375 107.559541,22.7019417 C107.807697,22.9232123 108.154388,23.0337303 108.600749,23.0337303 Z" id="Shape" fill="#F9F9F9" fill-rule="nonzero"></path>
                            <path d="M113,16 L114.21166,16 L115.84593,20.3294514 C116.204445,21.3178686 116.427074,22.0311878 116.513589,22.4701003 L116.567944,22.4701003 C116.627054,22.2341705 116.750938,21.8316612 116.938915,21.2607293 C117.127346,20.6902583 117.74382,18.9371426 118.787434,16 L120,16 L116.79261,24.6448485 C116.475087,25.4991727 116.103889,26.1053558 115.679015,26.4638586 C115.254821,26.8214398 114.733694,27 114.116992,27 C113.771839,27 113.431442,26.960832 113.095121,26.8824959 L113.095121,25.9613556 C113.3447,26.0166517 113.624175,26.0445301 113.932865,26.0445301 C114.709234,26.0445301 115.262521,25.60124 115.594312,24.7144293 L116.009447,23.6340825 L113,16 Z" id="Shape" fill="#F9F9F9" fill-rule="nonzero"></path>
                            <path d="M77.9802844,16.5666844 C78.3487743,16.8662503 79.1183227,17.4955442 79.1183227,18.6931221 C79.1183227,19.8577957 78.4448516,20.4100845 77.7713804,20.9290121 C77.5629416,21.1335212 77.3223996,21.3547109 77.3223996,21.7015767 C77.3223996,22.0472999 77.562709,22.2364994 77.7397424,22.378399 L78.3171363,22.8184934 C79.0224781,23.4014015 79.6631481,23.9372382 79.6631481,25.0242212 C79.6631481,26.5044558 78.2040769,28 75.4469162,28 C73.121754,28 72,26.9137025 72,25.7476579 C72,25.1809734 72.2873012,24.3782466 73.2345808,23.8264148 C74.2279217,23.2279686 75.575562,23.1500495 76.2967228,23.1016071 C76.0715345,22.8184934 75.8156387,22.5191561 75.8156387,22.0317617 C75.8156387,21.7644147 75.8961296,21.6067484 75.9759225,21.4168634 C75.7988892,21.4328586 75.6227864,21.4486252 75.4622699,21.4486252 C73.7633546,21.4486252 72.8014191,20.2044329 72.8014191,18.9766928 C72.8014191,18.2521136 73.1385036,17.4484728 73.8270959,16.8664788 C74.7413417,16.1263615 75.8314577,16 76.6980139,16 L80,16 L78.9738579,16.5669129 L77.9802844,16.5669129 L77.9802844,16.5666844 Z M76.8415482,23.5592962 C76.7133676,23.5428441 76.6328768,23.5428441 76.4732909,23.5428441 C76.3290587,23.5428441 75.4620373,23.5750628 74.7894966,23.7960241 C74.4368257,23.9210145 73.410451,24.2989565 73.410451,25.4177013 C73.410451,26.5353035 74.5173166,27.3396298 76.2329815,27.3396298 C77.7711478,27.3396298 78.5897816,26.6136796 78.5897816,25.6382055 C78.5897816,24.8334222 78.0605426,24.4100084 76.8415482,23.5592962 Z M77.3068132,20.5666083 C77.6750705,20.2039759 77.7067085,19.7005865 77.7067085,19.4167873 C77.7067085,18.2831899 77.017651,16.5193846 75.6872256,16.5193846 C75.2698828,16.5193846 74.8213673,16.7238937 74.5647736,17.0392261 C74.2925936,17.3698682 74.2116374,17.7946531 74.2116374,18.2045853 C74.2116374,19.259578 74.8369537,21.0078452 76.2164646,21.0078452 C76.6172904,21.0078452 77.049289,20.8188742 77.3068132,20.5666083 Z" id="Shape" fill="#F9F9F9" fill-rule="nonzero"></path>
                            <path d="M67.9195681,23 C65.3655917,23 64,21.1877181 64,19.5506538 C64,17.6360023 65.718605,16 68.1614475,16 C70.5218736,16 72,17.679966 72,19.448709 C72.0002335,21.1724263 70.5389173,23 67.9195681,23 Z M69.9274478,21.8163779 C70.3136145,21.3482812 70.4100394,20.7640098 70.4100394,20.1935435 C70.4100394,18.907127 69.7352984,16.4523802 67.7430614,16.4523802 C67.2130746,16.4523802 66.6830877,16.6426773 66.2976215,16.9502109 C65.6709762,17.460997 65.5579746,18.1043114 65.5579746,18.733396 C65.5579746,20.1791013 66.3452503,22.5605753 68.289625,22.5605753 C68.9160368,22.5605753 69.5587918,22.2834127 69.9274478,21.8163779 Z" id="Shape" fill="#F9F9F9" fill-rule="nonzero"></path>
                            <path d="M58.9200397,23 C56.3657455,23 55,21.1877181 55,19.5506538 C55,17.6360023 56.7192051,16 59.1612047,16 C61.5221934,16 63,17.679966 63,19.448709 C63.0002335,21.1724263 61.5387691,23 58.9200397,23 Z M60.9282692,21.8163779 C61.3137129,21.3482812 61.4103657,20.7640098 61.4103657,20.1935435 C61.4103657,18.907127 60.7351971,16.4523802 58.7430764,16.4523802 C58.213354,16.4523802 57.6829311,16.6426773 57.2977208,16.9502109 C56.6711121,17.460997 56.5588175,18.1043114 56.5588175,18.733396 C56.5588175,20.1791013 57.3455803,22.5605753 59.290075,22.5605753 C59.9166837,22.5605753 60.5589343,22.2834127 60.9282692,21.8163779 Z" id="Shape" fill="#F9F9F9" fill-rule="nonzero"></path>
                            <path d="M54.3736205,24.185418 L52.0127066,24.7235229 C51.0548828,24.8706003 50.1968025,25 49.2893277,25 C44.7326254,25 43,21.6898177 43,19.0971087 C43,15.9342395 45.4592257,13 49.669212,13 C50.5609378,13 51.4185408,13.1301069 52.194297,13.3422376 C53.4322615,13.6847109 54.0099624,14.1082652 54.3733819,14.3531584 L53.0027441,15.6412634 L52.4252819,15.7711345 L52.8378572,15.1187146 C52.2768598,14.5810811 51.2524608,13.5866593 49.3053153,13.5866593 C46.6969516,13.5866593 44.7321482,15.5441546 44.7321482,18.397313 C44.7321482,21.461895 46.9775696,24.3480515 50.5754936,24.3480515 C51.6330609,24.3480515 52.176639,24.1363922 52.6722544,23.9402891 L52.6722544,21.3157605 L50.180099,21.4461031 L51.5001491,20.744186 L55,20.744186 L54.5711985,21.1517128 C54.4547515,21.25 54.4387639,21.2829981 54.4058343,21.4121622 C54.3886536,21.5592395 54.3731432,22.0325267 54.3731432,22.195396 L54.3731432,24.185418 L54.3736205,24.185418 Z" id="Shape" fill="#F9F9F9" fill-rule="nonzero"></path>
                            <path d="M83.0312757,23.5418048 C82.4046639,23.4907305 82.2735254,23.3893186 82.2735254,22.7260896 L82.2735254,22.538981 L82.2735254,13.1118478 C82.2773663,13.0752609 82.2798354,13.0376918 82.2836763,13.0023327 C82.3602195,12.4081031 82.5497942,12.3062001 83.1388203,12 L80.4238683,12 L79,12.6116636 L80.4510288,12.6116636 L80.4510288,12.6192756 L80.4499314,12.6131369 L80.4499314,22.5392265 L80.4499314,23.1003069 C80.4499314,23.4394107 80.3750343,23.4909761 79.9379973,24 L83.297668,24 L84,23.627256 C83.6776406,23.5921424 83.3544582,23.5756906 83.0312757,23.5418048 Z" id="Shape" fill="#F9F9F9" fill-rule="nonzero"></path>
                            <path d="M89.2392394,22.4613266 C89.0819056,22.5488107 88.9239448,22.6511227 88.7666109,22.7233553 C88.292102,22.941536 87.8042206,23 87.3727539,23 C86.9145424,23 86.1961972,22.9699207 85.463435,22.4320947 C84.4450481,21.7038371 84,20.4523694 84,19.361254 C84,17.1059432 85.8086084,16 87.2870873,16 C87.8040117,16 88.335771,16.1306966 88.766402,16.4077649 C89.4834935,16.887127 89.6700794,17.5128609 89.769954,17.8477577 L86.3974091,19.2307692 L85.291893,19.3180415 C85.6502298,21.1662228 86.8846636,22.2422986 88.2488508,22.2422986 C88.9807773,22.2422986 89.5121187,21.9809054 90,21.7339164 L89.2392394,22.4613266 Z M87.8903051,18.1239787 C88.1625575,18.0225141 88.3061011,17.9348181 88.3061011,17.7312534 C88.3061011,17.1495794 87.660468,16.4797858 86.8846636,16.4797858 C86.3098621,16.4797858 85.2340159,16.9311868 85.2340159,18.5025117 C85.2340159,18.7499243 85.26285,19.0117412 85.2776849,19.2746172 L87.8903051,18.1239787 Z" id="Shape" fill="#F9F9F9" fill-rule="nonzero"></path>
                            <polygon id="Shape" fill="#F9F9F9" fill-rule="nonzero" points="91.5777465 16.0939436 91.5777465 17 91.4225352 17 91.4225352 16.0939436 91 16.0939436 91 16 92 16 92 16.0939436"></polygon>
                            <polygon id="Shape" fill="#F9F9F9" fill-rule="nonzero" points="91.8841563 17 91.8841563 16.0855487 91.8783056 16.0855487 91.5516031 17 91.4507372 17 91.1212263 16.0855487 91.1170138 16.0855487 91.1170138 17 91 17 91 16 91.2005617 16 91.4987128 16.808315 91.5029253 16.808315 91.79663 16 92 16 92 17 91.8841563 17"></polygon>
                            <path d="M46,10 L45.2428425,10 C45.2428425,9.86472186 45.1710468,9.48176748 45.0274556,8.85085085 L43.9344443,8.85085085 C43.7862282,9.47147147 43.71201,9.85442585 43.71201,10 L43,10 C43,9.92020592 43.1841139,9.26469326 43.5523418,8.03374803 C43.9205697,6.8028028 44.1046836,6.12469612 44.1046836,6 L44.9990457,6 C44.9990457,6.11668812 45.1657613,6.78478478 45.4994127,8.004576 C45.8330642,9.22436722 46,9.88931789 46,10 Z M44.9069887,8.26397826 C44.6372045,7.20720721 44.5024226,6.63577864 44.5024226,6.54969255 L44.4645427,6.54969255 C44.4645427,6.62948663 44.3249156,7.2009152 44.0458817,8.26397826 L44.9069887,8.26397826 Z" id="Shape" fill="#F9F9FA" fill-rule="nonzero"></path>
                            <path d="M49,9.999714 L48.3094742,9.999714 C48.3094742,9.91562992 48.0530973,9.47232947 47.5406039,8.66952667 C47.0039042,7.82353782 46.6980739,7.24524525 46.6236335,6.93379093 L46.5788652,6.93379093 C46.6254555,7.38223938 46.6488808,7.78778779 46.6488808,8.15043615 C46.6488808,8.65637066 46.6618948,9.27298727 46.687923,10 L46,10 C46.0278501,9.36507937 46.0419053,8.66781067 46.0419053,7.90790791 C46.0419053,7.16030316 46.0278501,6.52423852 46,6 L46.8302967,6 C46.8302967,6.10868011 47.0603852,6.54197054 47.5208225,7.2995853 C48.0109318,8.1043901 48.292556,8.65036465 48.3651744,8.93722294 L48.4070796,8.93722294 C48.3623113,8.48048048 48.3399271,8.07092807 48.3399271,7.70827971 C48.3399271,7.15343915 48.3269131,6.58372658 48.300885,6 L49,6 C48.9737116,6.50793651 48.9609578,7.14400114 48.9609578,7.90790791 C48.9606976,8.67753468 48.9737116,9.37480337 49,9.999714 Z" id="Shape" fill="#F9F9FA" fill-rule="nonzero"></path>
                            <path d="M53,7.85457367 C53,8.42838 52.8344758,8.92940264 52.5036811,9.35764158 C52.1726326,9.78616263 51.7090632,10 51.112719,10 C50.8436151,10 50.4727088,9.98786938 50,9.96360815 C50.0236101,9.35340997 50.035542,8.66535017 50.035542,7.89999295 C50.035542,7.16482121 50.0236101,6.53741449 50,6.01805487 L50.4772785,6.01805487 C50.5554709,6.01805487 50.6717441,6.01495169 50.8263519,6.00902743 C50.9807058,6.00310318 51.0817466,6 51.1289667,6 C51.7852247,6 52.2609799,6.18195924 52.5567403,6.5455956 C52.8522468,6.90923196 53,7.34536991 53,7.85457367 Z M52.2556486,7.98490726 C52.2556486,7.59700966 52.1538462,7.27032936 51.9502412,7.00430214 C51.7466362,6.73883913 51.4356436,6.60596657 51.0175171,6.60596657 C50.9393247,6.60596657 50.8321909,6.61499401 50.695608,6.63333098 C50.7136329,7.0375908 50.7227723,7.45962339 50.7227723,7.89999295 C50.7227723,8.38296072 50.7319117,8.86169688 50.7499365,9.33648353 C50.8679868,9.36271951 50.9862909,9.37597856 51.1043412,9.37597856 C51.4953034,9.37597856 51.7847169,9.24084914 51.9728357,8.97115452 C52.1609546,8.70145991 52.2556486,8.37280485 52.2556486,7.98490726 Z" id="Shape" fill="#F9F9FA" fill-rule="nonzero"></path>
                            <path d="M57,10 L56.1573183,10 C55.937108,9.27829181 55.7683067,8.83274021 55.6506492,8.66362989 C55.5329918,8.49423488 55.3432559,8.40967972 55.0814416,8.40967972 C54.971204,8.40967972 54.8660012,8.41081851 54.7655684,8.41281139 C54.7655684,8.9369395 54.7740482,9.46590747 54.7912729,10 L54,10 C54.0246445,9.38419929 54.0370992,8.68982206 54.0370992,7.91743772 C54.0370992,7.17551601 54.0246445,6.54234875 54,6.01822064 L54.4923593,6.01822064 C54.5493331,6.01822064 54.6683155,6.01508897 54.8495716,6.00911032 C55.0308277,6.00313167 55.198304,6 55.3520007,6 C56.2230368,6 56.6586874,6.32 56.6586874,6.9602847 C56.6586874,7.46790036 56.4101228,7.82149466 55.9129936,8.02163701 L55.9129936,8.06747331 C56.1045844,8.12441281 56.2725908,8.2852669 56.4167476,8.5488968 C56.5606395,8.81281139 56.7551453,9.29651246 57,10 Z M55.9326031,7.18633452 C55.9326031,6.78064057 55.6896034,6.57765125 55.2038689,6.57765125 C55.0255278,6.57765125 54.8678562,6.59188612 54.7313842,6.62035587 C54.7523187,6.93637011 54.7626535,7.3483274 54.7626535,7.85594306 C54.8670612,7.86021352 54.9553043,7.86192171 55.0273827,7.86192171 C55.6307747,7.86220641 55.9326031,7.63701068 55.9326031,7.18633452 Z" id="Shape" fill="#F9F9FA" fill-rule="nonzero"></path>
                            <path d="M60,7.92092548 C60,8.51922423 59.8523583,9.01544743 59.5568556,9.4093229 C59.2613528,9.80292617 58.8960878,10 58.4610603,10 C58.0462157,10 57.6989397,9.81925825 57.4194516,9.45750255 C57.1397441,9.09601905 57,8.63627084 57,8.07907452 C57,7.48077577 57.1476417,6.98455257 57.4431444,6.5906771 C57.7384278,6.19707383 58.1036929,6 58.5389397,6 C58.9537843,6 59.300841,6.18019735 59.5805484,6.54086424 C59.8602559,6.90153113 60,7.36127935 60,7.92092548 Z M59.3497623,8.00558013 C59.3497623,7.59809459 59.2657404,7.26764206 59.0976965,7.01422252 C58.9294333,6.76080299 58.7221207,6.63422933 58.4755393,6.63422933 C58.2460695,6.63422933 58.0512614,6.7618918 57.8911152,7.01721674 C57.7309689,7.27254168 57.650457,7.59510037 57.650457,7.98516502 C57.650457,8.39047295 57.7349177,8.72038108 57.9038391,8.97488942 C58.0727605,9.22939775 58.2796344,9.35651582 58.5248995,9.35651582 C58.7541499,9.35651582 58.9491773,9.22830895 59.1093236,8.9718952 C59.2694698,8.71575366 59.3497623,8.39346717 59.3497623,8.00558013 Z" id="Shape" fill="#F9F9FA" fill-rule="nonzero"></path>
                            <path d="M62,10 L61,10 C61.0305921,9.36507937 61.0460526,8.66781067 61.0460526,7.90790791 C61.0460526,7.16030316 61.0305921,6.52423852 61,6 L62,6 C61.9694079,6.51623052 61.9539474,7.15200915 61.9539474,7.90790791 C61.9539474,8.67982268 61.9694079,9.37737738 62,10 Z" id="Shape" fill="#F9F9FA" fill-rule="nonzero"></path>
                            <path d="M66,7.85457367 C66,8.42838 65.8344758,8.92940264 65.5036811,9.35764158 C65.1726326,9.78616263 64.7090632,10 64.112719,10 C63.8436151,10 63.4727088,9.98786938 63,9.96360815 C63.0236101,9.35340997 63.035542,8.66535017 63.035542,7.89999295 C63.035542,7.16482121 63.0236101,6.53741449 63,6.01805487 L63.4772785,6.01805487 C63.5554709,6.01805487 63.6717441,6.01495169 63.8263519,6.00902743 C63.9807058,6.00310318 64.0817466,6 64.1289667,6 C64.7852247,6 65.2609799,6.18195924 65.5567403,6.5455956 C65.8522468,6.90923196 66,7.34536991 66,7.85457367 Z M65.2556486,7.98490726 C65.2556486,7.59700966 65.1538462,7.27032936 64.9502412,7.00430214 C64.7466362,6.73883913 64.4356436,6.60596657 64.0175171,6.60596657 C63.9393247,6.60596657 63.8321909,6.61499401 63.695608,6.63333098 C63.7136329,7.0375908 63.7227723,7.45962339 63.7227723,7.89999295 C63.7227723,8.38296072 63.7319117,8.86169688 63.7499365,9.33648353 C63.8679868,9.36271951 63.9862909,9.37597856 64.1043412,9.37597856 C64.4953034,9.37597856 64.7847169,9.24084914 64.9728357,8.97115452 C65.1609546,8.70145991 65.2556486,8.37280485 65.2556486,7.98490726 Z" id="Shape" fill="#F9F9FA" fill-rule="nonzero"></path>
                            <path d="M72,10 L71.2428425,10 C71.2428425,9.86472186 71.1710468,9.48176748 71.0272354,8.85085085 L69.934224,8.85085085 C69.7860079,9.47147147 69.7117898,9.85442585 69.7117898,10 L69,10 C69,9.92020592 69.1841139,9.26469326 69.5523418,8.03374803 C69.9205697,6.8028028 70.1046836,6.12469612 70.1046836,6 L70.9990457,6 C70.9990457,6.11668812 71.1659815,6.78478478 71.4994127,8.004576 C71.8328439,9.22436722 72,9.88931789 72,10 Z M70.9069887,8.26397826 C70.6372045,7.20720721 70.5022023,6.63577864 70.5022023,6.54969255 L70.4643224,6.54969255 C70.4643224,6.62948663 70.3249156,7.2009152 70.0458817,8.26397826 L70.9069887,8.26397826 Z" id="Shape" fill="#F9F9FA" fill-rule="nonzero"></path>
                            <path d="M76,7.06078292 C76,7.54818505 75.8130511,7.9080427 75.4394474,8.14035587 C75.0658436,8.37266904 74.6075838,8.48911032 74.0643739,8.48911032 C73.9653145,8.48911032 73.8950617,8.48711744 73.8527337,8.48313167 C73.8527337,8.86661922 73.8641975,9.3719573 73.8874192,10 L73,10 C73.0273369,9.41096085 73.0411523,8.71658363 73.0411523,7.91743772 C73.0411523,7.18348754 73.0273369,6.55032028 73,6.01822064 L73.5493827,6.01822064 C73.6272781,6.01822064 73.776602,6.01508897 73.9976484,6.00911032 C74.2186949,6.00313167 74.4100529,6 74.5723104,6 C74.9720752,6 75.3101117,6.08768683 75.5858319,6.2630605 C75.861552,6.43843416 76,6.70405694 76,7.06078292 Z M75.1854791,7.22903915 C75.1854791,6.79288256 74.8865373,6.57451957 74.2886537,6.57451957 C74.1390359,6.57451957 73.9811875,6.58989324 73.8151088,6.62035587 C73.8383304,7.0058363 73.8497942,7.44199288 73.8497942,7.92939502 C73.9024103,7.93366548 73.9635509,7.93537367 74.0329218,7.93537367 C74.8012934,7.93565836 75.1854791,7.70021352 75.1854791,7.22903915 Z" id="Shape" fill="#F9F9FA" fill-rule="nonzero"></path>
                            <path d="M79,7.06078292 C79,7.54818505 78.8130511,7.9080427 78.4397413,8.14035587 C78.0661376,8.37266904 77.6075838,8.48911032 77.0643739,8.48911032 C76.9653145,8.48911032 76.8950617,8.48711744 76.8527337,8.48313167 C76.8527337,8.86661922 76.8641975,9.3719573 76.8874192,10 L76,10 C76.0273369,9.41096085 76.0411523,8.71658363 76.0411523,7.91743772 C76.0411523,7.18348754 76.0273369,6.55032028 76,6.01822064 L76.5493827,6.01822064 C76.6272781,6.01822064 76.776602,6.01508897 76.9976484,6.00911032 C77.2186949,6.00313167 77.4100529,6 77.5723104,6 C77.9720752,6 78.3101117,6.08768683 78.5858319,6.2630605 C78.861552,6.43843416 79,6.70405694 79,7.06078292 Z M78.1854791,7.22903915 C78.1854791,6.79288256 77.8865373,6.57451957 77.2886537,6.57451957 C77.1390359,6.57451957 76.9811875,6.58989324 76.8151088,6.62035587 C76.8383304,7.0058363 76.8497942,7.44199288 76.8497942,7.92939502 C76.9024103,7.93366548 76.9635509,7.93537367 77.0329218,7.93537367 C77.8012934,7.93565836 78.1854791,7.70021352 78.1854791,7.22903915 Z" id="Shape" fill="#F9F9FA" fill-rule="nonzero"></path>
                            <path d="M85,7.92092548 C85,8.51922423 84.8523583,9.01544743 84.5568556,9.4093229 C84.2613528,9.80319837 83.8960878,10 83.4610603,10 C83.0462157,10 82.6989397,9.81925825 82.4194516,9.45750255 C82.1399634,9.09601905 82,8.63627084 82,8.07907452 C82,7.48077577 82.1476417,6.98455257 82.4431444,6.5906771 C82.7386472,6.19680163 83.1039122,6 83.5389397,6 C83.9537843,6 84.3010603,6.18019735 84.5805484,6.54086424 C84.8600366,6.90153113 85,7.36127935 85,7.92092548 Z M84.349543,8.00558013 C84.349543,7.59809459 84.265521,7.26764206 84.0974771,7.01422252 C83.9294333,6.76080299 83.7219013,6.63422933 83.4753199,6.63422933 C83.2458501,6.63422933 83.051042,6.7618918 82.8908958,7.01721674 C82.7307495,7.27254168 82.650457,7.59510037 82.650457,7.98516502 C82.650457,8.39047295 82.7349177,8.72038108 82.9038391,8.97488942 C83.0727605,9.22939775 83.2796344,9.35651582 83.5246801,9.35651582 C83.7541499,9.35651582 83.948958,9.22830895 84.1091042,8.9718952 C84.2694698,8.71575366 84.349543,8.39346717 84.349543,8.00558013 Z" id="Shape" fill="#F9F9FA" fill-rule="nonzero"></path>
                            <path d="M89,9.999714 L88.3094742,9.999714 C88.3094742,9.91562992 88.0533576,9.47232947 87.5406039,8.66952667 C87.0039042,7.82353782 86.6980739,7.24524525 86.6236335,6.93379093 L86.5788652,6.93379093 C86.6254555,7.38223938 86.6488808,7.78778779 86.6488808,8.15043615 C86.6488808,8.65637066 86.6618948,9.27298727 86.687923,10 L86,10 C86.0278501,9.36507937 86.0419053,8.66781067 86.0419053,7.90790791 C86.0419053,7.16030316 86.0278501,6.52423852 86,6 L86.8302967,6 C86.8302967,6.10868011 87.0606455,6.54197054 87.5208225,7.2995853 C88.0111921,8.1043901 88.292556,8.65036465 88.3651744,8.93722294 L88.4070796,8.93722294 C88.3623113,8.48048048 88.3399271,8.07092807 88.3399271,7.70827971 C88.3399271,7.15343915 88.3269131,6.58372658 88.300885,6 L89,6 C88.9737116,6.50793651 88.9609578,7.14400114 88.9609578,7.90790791 C88.9609578,8.67753468 88.9739719,9.37480337 89,9.999714 Z" id="Shape" fill="#F9F9FA" fill-rule="nonzero"></path>
                        </g>
                    </g>
                </g>
            </g>
        </g>
    </g>
</svg>