<?xml version="1.0" encoding="UTF-8" standalone="no"?>
<svg
   id="Layer_1"
   data-name="Layer 1"
   viewBox="0 0 622.33003 186.71501"
   version="1.1"
   sodipodi:docname="huawei-appgallery1678028306_6684af82c6f6ac5fbaa1.svg"
   width="622.33002"
   height="186.715"
   inkscape:version="1.3.2 (091e20ef0f, 2023-11-25)"
   xmlns:inkscape="http://www.inkscape.org/namespaces/inkscape"
   xmlns:sodipodi="http://sodipodi.sourceforge.net/DTD/sodipodi-0.dtd"
   xmlns="http://www.w3.org/2000/svg"
   xmlns:svg="http://www.w3.org/2000/svg">
  <sodipodi:namedview
     id="namedview23"
     pagecolor="#ffffff"
     bordercolor="#000000"
     borderopacity="0.25"
     inkscape:showpageshadow="2"
     inkscape:pageopacity="0.0"
     inkscape:pagecheckerboard="0"
     inkscape:deskcolor="#d1d1d1"
     inkscape:zoom="1"
     inkscape:cx="161.5"
     inkscape:cy="-112.5"
     inkscape:window-width="2560"
     inkscape:window-height="1372"
     inkscape:window-x="0"
     inkscape:window-y="0"
     inkscape:window-maximized="1"
     inkscape:current-layer="Layer_1" />
  <defs
     id="defs2">
    <style
       id="style1">
      .cls-1, .cls-2 {
        fill: #fff;
      }

      .cls-2 {
        fill-rule: evenodd;
      }

      .cls-3 {
        fill: #c73148;
      }

      .cls-4 {
        fill: #2c2e36;
      }

      .cls-5 {
        fill: #d4313e;
      }

      .cls-6 {
        fill: #e14459;
      }

      .cls-7 {
        fill: url(#linear-gradient);
      }

      .cls-8 {
        fill: #010202;
      }

      .cls-9 {
        fill: #fefefe;
      }
    </style>
    <linearGradient
       id="linear-gradient"
       x1="640.15997"
       y1="395"
       x2="640.15997"
       y2="46.57"
       gradientUnits="userSpaceOnUse">
      <stop
         offset=".44"
         stop-color="#d4313e"
         id="stop1" />
      <stop
         offset=".57"
         stop-color="#e2455c"
         id="stop2" />
    </linearGradient>
  </defs>
  <path
     id="Path_1-2"
     data-name="Path 1"
     class="cls-4"
     d="M 578.42617,0.00189703 H 38.936168 C 37.506168,0.00189703 36.086168,0.05189703 34.656168,0.05189703 31.616168,0.15189703 28.526168,0.34189703 25.446168,0.90189698 22.356168,1.411897 19.516168,2.331897 16.696168,3.751897 13.946168,5.181897 11.426168,7.031897 9.2361678,9.221897 6.9961678,11.411897 5.1961678,13.921897 3.7661678,16.681897 2.3361678,19.481897 1.4361678,22.391897 0.91616779,25.481897 0.35616783,28.521897 0.15616783,31.611897 0.06616783,34.691897 0.06616783,36.071897 0.01616783,37.491897 0.01616783,38.921897 V 147.80189 C 0.01616783,149.23189 0.06616783,150.65189 0.06616783,152.08189 0.16616783,155.17189 0.35616783,158.25189 0.91616779,161.29189 1.4261678,164.38189 2.3461678,167.27189 3.7661678,170.09189 5.1961678,172.79189 6.9961678,175.36189 9.2361678,177.50189 11.426168,179.69189 13.936168,181.54189 16.696168,182.92189 19.496168,184.40189 22.356168,185.30189 25.446168,185.86189 28.536168,186.37189 31.616168,186.57189 34.656168,186.66189 36.086168,186.66189 37.506168,186.71189 38.936168,186.71189 H 583.40617 C 584.78617,186.71189 586.25617,186.66189 587.63617,186.66189 590.72617,186.56189 593.80617,186.37189 596.84617,185.86189 599.93617,185.30189 602.82617,184.38189 605.64617,182.92189 608.39617,181.54189 610.91617,179.69189 613.10617,177.50189 615.29617,175.36189 617.14617,172.80189 618.57617,170.09189 620.00617,167.29189 620.90617,164.38189 621.42617,161.29189 621.98617,158.25189 622.18617,155.16189 622.27617,152.08189 V 147.80189 C 622.32617,146.14189 622.32617,144.47189 622.32617,142.77189 V 43.961897 C 622.32617,42.261897 622.32617,40.581897 622.27617,38.931897 V 34.701897 C 622.17617,31.611897 621.98617,28.531897 621.42617,25.491897 620.91617,22.401897 619.99617,19.511897 618.57617,16.691897 617.14617,13.941897 615.29617,11.421897 613.10617,9.231897 610.91617,7.041897 608.40617,5.191897 605.64617,3.761897 602.84617,2.331897 599.93617,1.431897 596.84617,0.91189698 593.80617,0.35189703 590.71617,0.15189703 587.63617,0.06189703 586.25617,0.06189703 584.78617,0.01189703 583.40617,0.01189703 H 578.42617 Z" />
  <path
     id="Path_2-2"
     data-name="Path 2"
     class="cls-1"
     d="M 38.936168,182.65189 C 37.506168,182.65189 36.186168,182.65189 34.756168,182.60189 32.186168,182.55189 29.146168,182.41189 26.156168,181.84189 23.356168,181.36189 20.836168,180.51189 18.506168,179.32189 16.126168,178.13189 13.936168,176.52189 12.086168,174.66189 10.186168,172.76189 8.6161678,170.62189 7.3861678,168.20189 6.1961678,165.87189 5.3961678,163.41189 4.8661678,160.55189 4.3061678,157.46189 4.1561678,154.33189 4.1061678,151.95189 4.0561678,150.95189 4.0561678,147.72189 4.0561678,147.72189 V 38.891897 C 4.0561678,38.891897 4.1061678,35.711897 4.1061678,34.761897 4.1561678,32.331897 4.2961678,29.201897 4.8661678,26.161897 5.3761678,23.311897 6.1961678,20.841897 7.3861678,18.461897 8.6261678,16.081897 10.186168,13.891897 12.046168,12.041897 13.946168,10.141897 16.126168,8.521897 18.506168,7.341897 20.886168,6.101897 23.396168,5.301897 26.156168,4.821897 29.246168,4.261897 32.376168,4.111897 34.806168,4.061897 L 38.936168,4.011897 H 583.34617 L 587.57617,4.061897 C 589.95617,4.111897 593.09617,4.251897 596.12617,4.821897 598.92617,5.301897 601.44617,6.111897 603.82617,7.341897 606.20617,8.531897 608.39617,10.141897 610.24617,12.041897 612.14617,13.891897 613.71617,16.081897 614.98617,18.501897 616.17617,20.831897 616.97617,23.341897 617.41617,26.111897 617.97617,29.001897 618.12617,32.001897 618.21617,34.811897 618.26617,36.101897 618.26617,37.511897 618.26617,38.891897 V 147.72189 C 618.26617,149.20189 618.26617,150.57189 618.21617,152.00189 618.11617,154.70189 617.97617,157.71189 617.45617,160.51189 616.97617,163.36189 616.16617,165.83189 614.93617,168.21189 613.69617,170.64189 612.13617,172.78189 610.27617,174.63189 608.37617,176.53189 606.19617,178.10189 603.81617,179.33189 601.43617,180.57189 598.97617,181.32189 596.11617,181.85189 593.17617,182.41189 590.13617,182.56189 587.51617,182.61189 586.18617,182.66189 584.76617,182.66189 583.38617,182.66189 H 38.936168 V 182.68189 Z" />
  <path
     id="AppGallery-2"
     data-name="AppGallery"
     class="cls-8"
     d="M 211.98617,118.43189 201.62617,90.451893 191.31617,118.43189 H 211.97617 Z M 175.88617,139.19189 197.35617,82.941897 H 205.95617 L 227.42617,139.19189 H 219.49617 L 214.36617,124.75189 H 189.03617 L 183.90617,139.19189 Z M 242.00617,132.87189 V 155.24189 H 235.07617 V 97.001893 H 242.00617 V 103.37189 C 243.46617,100.86189 245.30617,99.011893 247.52617,97.811893 249.77617,96.571893 252.42617,95.961893 255.50617,95.961893 260.63617,95.961893 264.79617,98.001893 267.99617,102.09189 271.22617,106.14189 272.83617,111.50189 272.83617,118.15189 272.83617,124.80189 271.22617,130.11189 267.99617,134.21189 264.79617,138.26189 260.63617,140.29189 255.50617,140.29189 252.43617,140.29189 249.78617,139.70189 247.52617,138.49189 245.30617,137.25189 243.47617,135.37189 242.00617,132.88189 Z M 265.60617,118.14189 C 265.60617,113.04189 264.54617,109.04189 262.42617,106.13189 260.36617,103.22189 257.50617,101.76189 253.82617,101.76189 250.14617,101.76189 247.24617,103.22189 245.12617,106.13189 243.03617,109.04189 241.98617,113.04189 241.98617,118.14189 241.98617,123.24189 243.03617,127.24189 245.12617,130.15189 247.24617,133.03189 250.14617,134.48189 253.82617,134.48189 257.50617,134.48189 260.36617,133.03189 262.42617,130.15189 264.54617,127.24189 265.60617,123.24189 265.60617,118.14189 Z M 291.02617,132.87189 V 155.24189 H 284.04617 V 97.001893 H 291.02617 V 103.37189 C 292.48617,100.86189 294.30617,99.011893 296.49617,97.811893 298.74617,96.571893 301.41617,95.961893 304.51617,95.961893 309.61617,95.961893 313.76617,98.001893 316.96617,102.09189 320.19617,106.14189 321.80617,111.50189 321.80617,118.15189 321.80617,124.80189 320.19617,130.11189 316.96617,134.21189 313.76617,138.26189 309.61617,140.29189 304.51617,140.29189 301.41617,140.29189 298.74617,139.70189 296.49617,138.49189 294.30617,137.25189 292.47617,135.37189 291.02617,132.88189 Z M 314.58617,118.14189 C 314.58617,113.04189 313.52617,109.04189 311.40617,106.13189 309.34617,103.22189 306.48617,101.76189 302.80617,101.76189 299.12617,101.76189 296.22617,103.22189 294.10617,106.13189 292.04617,109.04189 291.01617,113.04189 291.01617,118.14189 291.01617,123.24189 292.04617,127.24189 294.10617,130.15189 296.22617,133.03189 299.12617,134.48189 302.80617,134.48189 306.48617,134.48189 309.34617,133.03189 311.40617,130.15189 313.52617,127.24189 314.58617,123.24189 314.58617,118.14189 Z M 371.68617,131.16189 V 116.06189 H 359.28617 V 109.79189 H 379.23617 V 133.97189 C 376.29617,136.06189 373.04617,137.64189 369.49617,138.71189 365.97617,139.76189 362.21617,140.27189 358.19617,140.27189 349.38617,140.27189 342.50617,137.70189 337.53617,132.57189 332.59617,127.44189 330.12617,120.29189 330.12617,111.10189 330.12617,101.91189 332.60617,94.761893 337.53617,89.631897 342.50617,84.471897 349.40617,81.881897 358.19617,81.881897 361.86617,81.881897 365.33617,82.351897 368.59617,83.261897 371.92617,84.141897 374.97617,85.481897 377.76617,87.251897 V 95.371893 C 374.95617,92.961893 371.96617,91.161893 368.79617,89.951897 365.62617,88.741897 362.29617,88.151897 358.82617,88.151897 351.95617,88.151897 346.78617,90.061893 343.29617,93.891893 339.87617,97.751893 338.16617,103.49189 338.16617,111.08189 338.16617,118.67189 339.86617,124.39189 343.29617,128.22189 346.78617,132.05189 351.96617,133.96189 358.82617,133.96189 361.51617,133.96189 363.92617,133.73189 366.04617,133.30189 368.13617,132.85189 370.01617,132.13189 371.68617,131.15189 Z M 418.66617,117.94189 H 411.78617 C 406.17617,117.94189 402.29617,118.58189 400.14617,119.89189 397.99617,121.16189 396.91617,123.35189 396.91617,126.45189 396.91617,128.93189 397.71617,130.89189 399.34617,132.34189 400.95617,133.77189 403.15617,134.48189 405.95617,134.48189 409.81617,134.48189 412.90617,133.11189 415.21617,130.40189 417.53617,127.68189 418.68617,124.05189 418.68617,119.51189 V 117.95189 H 418.66617 Z M 425.59617,115.09189 V 139.18189 H 418.66617 V 132.76189 C 417.08617,135.33189 415.11617,137.23189 412.77617,138.47189 410.39617,139.68189 407.50617,140.27189 404.07617,140.27189 399.76617,140.27189 396.32617,139.06189 393.76617,136.65189 391.22617,134.21189 389.97617,130.94189 389.97617,126.86189 389.97617,122.15189 391.55617,118.56189 394.71617,116.12189 397.91617,113.71189 402.65617,112.50189 408.96617,112.50189 H 418.66617 V 111.84189 C 418.66617,108.64189 417.61617,106.16189 415.52617,104.43189 413.43617,102.69189 410.49617,101.83189 406.69617,101.83189 404.28617,101.83189 401.95617,102.12189 399.66617,102.68189 397.38617,103.24189 395.17617,104.13189 393.05617,105.28189 V 98.861893 C 395.59617,97.881893 398.05617,97.161893 400.46617,96.671893 402.84617,96.161893 405.14617,95.911893 407.39617,95.911893 413.50617,95.911893 418.07617,97.491893 421.07617,100.65189 424.08617,103.85189 425.57617,108.64189 425.57617,115.07189 Z M 439.88617,139.18189 V 80.571897 H 446.81617 V 139.18189 Z M 461.31617,139.18189 V 80.571897 H 468.24617 V 139.18189 Z M 518.63617,116.33189 V 119.75189 H 486.76617 C 487.05617,124.49189 488.46617,128.14189 491.04617,130.67189 493.63617,133.15189 497.23617,134.37189 501.83617,134.37189 504.48617,134.37189 507.06617,134.05189 509.53617,133.42189 512.07617,132.76189 514.55617,131.78189 516.99617,130.48189 V 137.04189 C 514.51617,138.09189 511.97617,138.89189 509.34617,139.47189 506.75617,140.00189 504.10617,140.27189 501.41617,140.27189 494.69617,140.27189 489.37617,138.31189 485.39617,134.38189 481.47617,130.49189 479.50617,125.20189 479.50617,118.51189 479.50617,111.82189 481.37617,106.10189 485.11617,102.08189 488.84617,98.001893 493.89617,95.951893 500.21617,95.951893 505.89617,95.951893 510.36617,97.781893 513.65617,101.47189 516.96617,105.10189 518.62617,110.06189 518.62617,116.33189 Z M 486.95617,114.34189 H 511.70617 C 511.64617,110.55189 510.56617,107.51189 508.47617,105.22189 506.41617,102.97189 503.68617,101.84189 500.25617,101.84189 496.39617,101.84189 493.29617,102.93189 490.94617,105.12189 488.62617,107.31189 487.31617,110.38189 486.95617,114.33189 Z M 554.16617,96.331893 554.21617,103.45189 C 553.42617,103.00189 552.57617,102.68189 551.64617,102.45189 550.71617,102.22189 549.73617,102.11189 548.65617,102.11189 544.73617,102.11189 541.70617,103.40189 539.58617,105.95189 537.49617,108.49189 536.44617,112.14189 536.44617,116.92189 V 139.16189 H 529.51617 V 96.981893 H 536.44617 V 103.54189 C 537.90617,100.97189 539.80617,99.071893 542.15617,97.831893 544.50617,96.561893 547.33617,95.931893 550.66617,95.931893 551.14617,95.931893 551.67617,95.981893 552.27617,96.071893 552.83617,96.101893 553.48617,96.181893 554.17617,96.311893 Z M 597.58617,96.991893 579.06617,143.07189 C 577.10617,148.10189 575.18617,151.40189 573.32617,152.94189 571.45617,154.47189 568.96617,155.22189 565.86617,155.22189 H 560.30617 V 149.43189 H 564.38617 C 566.28617,149.43189 567.77617,148.96189 568.85617,148.05189 569.90617,147.17189 571.05617,145.03189 572.32617,141.63189 L 573.61617,138.49189 556.50617,96.971893 H 563.86617 L 577.06617,129.93189 590.21617,96.971893 H 597.57617 Z" />
  <path
     id="EXPLORE_IT_ON-2"
     data-name="EXPLORE IT ON"
     class="cls-8"
     d="M 175.45617,63.181897 V 34.161897 H 193.78617 V 37.441897 H 179.34617 V 46.041897 H 193.17617 V 49.371897 H 179.34617 V 59.871897 H 194.17617 V 63.201897 H 175.45617 Z M 208.24617,47.701897 199.22617,34.161897 H 203.45617 L 210.67617,44.951897 217.89617,34.161897 H 222.12617 L 212.81617,48.081897 222.73617,63.181897 H 218.50617 L 210.38617,50.831897 202.12617,63.181897 H 197.89617 L 208.25617,47.701897 Z M 236.73617,37.391897 H 231.79617 V 48.281897 H 236.73617 C 238.56617,48.281897 239.99617,47.811897 241.01617,46.901897 241.99617,45.951897 242.49617,44.581897 242.49617,42.821897 242.49617,41.061897 241.99617,39.781897 241.01617,38.831897 240.00617,37.881897 238.57617,37.401897 236.73617,37.401897 Z M 227.90617,63.181897 V 34.161897 H 236.73617 C 239.99617,34.161897 242.45617,34.881897 244.14617,36.351897 245.78617,37.851897 246.62617,39.981897 246.62617,42.811897 246.62617,45.641897 245.80617,47.861897 244.14617,49.321897 242.47617,50.781897 239.99617,51.511897 236.73617,51.511897 H 231.79617 V 63.201897 H 227.90617 Z M 251.89617,63.181897 V 34.161897 H 255.83617 V 59.861897 H 269.98617 V 63.191897 H 251.89617 Z M 284.47617,36.831897 C 281.62617,36.831897 279.34617,37.891897 277.64617,40.011897 276.00617,42.131897 275.16617,45.031897 275.16617,48.711897 275.16617,52.391897 275.98617,55.251897 277.64617,57.411897 279.34617,59.531897 281.63617,60.591897 284.47617,60.591897 287.31617,60.591897 289.57617,59.531897 291.21617,57.411897 292.88617,55.261897 293.73617,52.361897 293.73617,48.711897 293.73617,45.061897 292.89617,42.131897 291.21617,40.011897 289.57617,37.871897 287.32617,36.831897 284.47617,36.831897 Z M 284.47617,33.651897 C 288.52617,33.651897 291.77617,35.021897 294.21617,37.731897 296.65617,40.451897 297.86617,44.111897 297.86617,48.701897 297.86617,53.291897 296.64617,56.951897 294.21617,59.671897 291.77617,62.391897 288.52617,63.751897 284.47617,63.751897 280.42617,63.751897 277.11617,62.381897 274.63617,59.671897 272.19617,56.951897 270.98617,53.291897 270.98617,48.701897 270.98617,44.111897 272.20617,40.451897 274.63617,37.731897 277.11617,35.001897 280.39617,33.651897 284.47617,33.651897 Z M 317.77617,49.551897 C 318.62617,49.841897 319.44617,50.451897 320.25617,51.401897 321.04617,52.321897 321.84617,53.601897 322.68617,55.241897 L 326.67617,63.171897 H 322.44617 L 318.74617,55.711897 C 317.76617,53.781897 316.83617,52.491897 315.94617,51.871897 315.02617,51.241897 313.79617,50.921897 312.24617,50.921897 H 307.96617 V 63.171897 H 304.02617 V 34.161897 H 312.90617 C 316.23617,34.161897 318.70617,34.851897 320.36617,36.251897 321.97617,37.621897 322.79617,39.711897 322.79617,42.521897 322.79617,44.351897 322.36617,45.881897 321.50617,47.091897 320.62617,48.281897 319.39617,49.121897 317.77617,49.551897 Z M 312.88617,37.391897 H 307.94617 V 47.701897 H 312.88617 C 314.78617,47.701897 316.21617,47.251897 317.16617,46.371897 318.14617,45.491897 318.64617,44.201897 318.64617,42.531897 318.64617,40.861897 318.14617,39.541897 317.16617,38.691897 316.21617,37.841897 314.78617,37.401897 312.88617,37.401897 Z M 331.69617,63.181897 V 34.161897 H 350.02617 V 37.441897 H 335.63617 V 46.041897 H 349.46617 V 49.371897 H 335.63617 V 59.871897 H 350.41617 V 63.201897 H 331.69617 Z M 369.49617,63.181897 V 34.161897 H 373.43617 V 63.181897 Z M 377.24617,37.441897 V 34.161897 H 401.79617 V 37.441897 H 391.48617 V 63.181897 H 387.54617 V 37.441897 H 377.23617 Z M 430.01617,36.831897 C 427.16617,36.831897 424.90617,37.891897 423.22617,40.011897 421.55617,42.131897 420.70617,45.031897 420.70617,48.711897 420.70617,52.391897 421.54617,55.251897 423.22617,57.411897 424.89617,59.531897 427.16617,60.591897 430.01617,60.591897 432.86617,60.591897 435.12617,59.531897 436.80617,57.411897 438.44617,55.261897 439.28617,52.361897 439.28617,48.711897 439.28617,45.061897 438.46617,42.131897 436.80617,40.011897 435.13617,37.871897 432.86617,36.831897 430.01617,36.831897 Z M 430.01617,33.651897 C 434.09617,33.651897 437.36617,35.021897 439.80617,37.731897 442.24617,40.441897 443.45617,44.111897 443.45617,48.701897 443.45617,53.291897 442.23617,56.951897 439.80617,59.671897 437.37617,62.391897 434.09617,63.751897 430.01617,63.751897 425.93617,63.751897 422.66617,62.381897 420.22617,59.671897 417.78617,56.951897 416.57617,53.291897 416.57617,48.701897 416.57617,44.111897 417.79617,40.451897 420.22617,37.731897 422.66617,35.001897 425.93617,33.651897 430.01617,33.651897 Z M 449.58617,63.191897 V 34.171897 H 454.85617 L 467.73617,58.451897 V 34.171897 H 471.57617 V 63.191897 H 466.25617 L 453.37617,38.911897 V 63.191897 Z" />
  <g
     id="g5"
     transform="translate(-119.28383,-682.29811)">
    <rect
       class="cls-6"
       x="160.10001"
       y="713.63"
       width="118.23"
       height="118.23"
       rx="25.469999"
       ry="25.469999"
       id="rect3" />
    <path
       class="cls-3"
       d="M 188.92,721.36 C 187.06,721.36 185.56,722.86 185.56,724.71 185.56,726.56 187.07,728.06 188.92,728.06 190.78,728.06 192.28,726.56 192.28,724.71 V 724.71 C 192.28,722.85 190.77,721.36 188.91,721.36 V 721.36 Z M 249.08,721.36 C 247.22,721.36 245.72,722.86 245.72,724.71 245.72,726.56 247.23,728.06 249.09,728.06 250.95,728.06 252.45,726.56 252.45,724.71 V 724.71 C 252.45,722.85 250.94,721.36 249.08,721.36 Z"
       id="path4" />
    <path
       class="cls-1"
       d="M 188.78,724.25 C 187.61,724.31 187.67,726.01 187.67,726.01 193.95,738.25 205.52,744.25 218.86,744.25 232.18,744.23 243.86,738.16 250.14,725.95 250.14,725.95 250.39,723.65 247.94,724.45 241.51,735.11 230.7,741.42 218.87,741.44 207.02,741.44 196.25,735.2 189.8,724.52 189.38,724.32 189.05,724.25 188.78,724.26 V 724.26 Z M 231.3,771.8 227.73,782.44 224.25,771.8 H 220.85 L 226.33,787.27 H 228.97 L 232.55,777.11 236.13,787.27 H 238.8 L 244.27,771.8 H 240.96 L 237.47,782.44 233.9,771.8 Z M 212.32,771.8 205.39,787.27 H 208.65 L 209.99,784.28 210.09,784.05 H 217.29 L 218.7,787.27 H 222.05 L 215.18,771.89 215.12,771.8 H 212.33 Z M 262.54,771.8 V 787.26 H 265.69 V 771.8 Z M 172.18,771.8 V 787.28 H 175.37 V 780.99 H 182.58 V 787.27 H 185.78 V 771.79 H 182.59 V 778.03 H 175.38 V 771.79 H 172.18 Z M 200.57,771.8 V 780.66 C 200.57,783.18 199.3,784.52 196.99,784.52 194.68,784.52 193.39,783.14 193.39,780.55 V 771.81 H 190.19 V 780.66 C 190.19,785.01 192.65,787.51 196.94,787.51 201.23,787.51 203.75,784.97 203.75,780.53 V 771.8 H 200.56 Z M 246.86,771.8 V 787.26 H 258.75 V 784.44 H 250.01 V 780.61 H 255.82 V 777.79 H 250.01 V 774.63 H 258.44 V 771.81 H 246.86 Z M 213.68,775.7 215.96,780.88 216.12,781.24 H 211.29 L 211.44,780.88 213.69,775.7 Z"
       id="path5" />
  </g>
</svg>
