<?xml version="1.0" encoding="UTF-8" standalone="no"?>
<svg
   width="156"
   height="52"
   viewBox="0 0 156 52"
   fill="none"
   version="1.1"
   id="svg21"
   sodipodi:docname="rustore-light.svg"
   inkscape:version="1.3.2 (091e20ef0f, 2023-11-25)"
   xmlns:inkscape="http://www.inkscape.org/namespaces/inkscape"
   xmlns:sodipodi="http://sodipodi.sourceforge.net/DTD/sodipodi-0.dtd"
   xmlns="http://www.w3.org/2000/svg"
   xmlns:svg="http://www.w3.org/2000/svg">
  <defs
     id="defs21" />
  <sodipodi:namedview
     id="namedview21"
     pagecolor="#ffffff"
     bordercolor="#000000"
     borderopacity="0.25"
     inkscape:showpageshadow="2"
     inkscape:pageopacity="0.0"
     inkscape:pagecheckerboard="0"
     inkscape:deskcolor="#d1d1d1"
     inkscape:zoom="4"
     inkscape:cx="122.5"
     inkscape:cy="19.875"
     inkscape:window-width="2560"
     inkscape:window-height="1372"
     inkscape:window-x="0"
     inkscape:window-y="0"
     inkscape:window-maximized="1"
     inkscape:current-layer="svg21" />
  <path
     d="M 0,7.4286001 C 0,3.3258801 2.94078,0 6.5684,0 H 149.432 C 153.059,0 156,3.3258901 156,7.4286001 V 44.5714 C 156,48.6741 153.059,52 149.432,52 H 6.5684 C 2.94078,52 0,48.6741 0,44.5714 Z"
     fill="#ffffff"
     id="path1" />
  <path
     fill-rule="evenodd"
     clip-rule="evenodd"
     d="M 149.432,1.0000001 H 6.5684 C 3.60517,1.0000001 0.99999996,3.7589601 0.99999996,7.4286001 V 44.5714 C 0.99999996,48.241 3.60517,51 6.5684,51 H 149.432 C 152.395,51 155,48.241 155,44.5714 V 7.4286001 C 155,3.7589601 152.395,1.0000001 149.432,1.0000001 Z M 6.5684,0 C 2.94078,0 0,3.3258801 0,7.4286001 V 44.5714 C 0,48.6741 2.94078,52 6.5684,52 H 149.432 C 153.059,52 156,48.6741 156,44.5714 V 7.4286001 C 156,3.3258801 153.059,0 149.432,0 Z"
     fill="#a6a6a6"
     id="path2" />
  <path
     d="M 13.8173,41.1622 C 16.3329,43.6426 20.3817,43.6426 28.4793,43.6426 H 29.9107 C 38.0083,43.6426 42.0571,43.6426 44.5727,41.1622 47.0882,38.6819 47.0882,34.6897 47.0882,26.7054 V 25.294 C 47.0882,17.3097 47.0882,13.3176 44.5727,10.8372 42.0571,8.3569001 38.0083,8.3569001 29.9107,8.3569001 H 28.4793 C 20.3817,8.3569001 16.3329,8.3569001 13.8173,10.8372 11.3018,13.3176 11.3018,17.3097 11.3018,25.294 V 26.7054 C 11.3018,34.6897 11.3018,38.6819 13.8173,41.1622 Z"
     fill="#0077ff"
     id="path3" />
  <path
     fill-rule="evenodd"
     clip-rule="evenodd"
     d="M 38.9297,31.81 36.5117,31.2144 C 36.2205,31.132 36.0149,30.8737 36.0046,30.5735 L 35.7028,21.7984 C 35.6155,20.637 34.7411,19.7132 33.8274,19.4412 33.7761,19.4259 33.7213,19.4465 33.6909,19.49 33.66,19.5343 33.672,19.5955 33.715,19.6283 33.9407,19.8006 34.5617,20.3626 34.5617,21.332 L 34.5599,32.8052 C 34.5599,33.913 33.4982,34.7255 32.4031,34.4558 L 29.9477,33.851 C 29.6755,33.7571 29.4863,33.5071 29.4764,33.2187 L 29.1747,24.443 C 29.0874,23.2816 28.213,22.3579 27.2993,22.0858 27.248,22.0706 27.1932,22.0911 27.1628,22.1346 27.132,22.1789 27.1439,22.2401 27.1869,22.273 27.4126,22.4452 28.0336,23.0072 28.0336,23.9766 L 28.0318,33.5401 28.0332,33.5403 V 35.4509 C 28.0332,36.5587 26.9714,37.3713 25.8763,37.1015 L 18.941,35.3933 C 17.9768,35.1558 17.3008,34.3054 17.3008,33.33 V 21.8389 C 17.3008,20.7311 18.3625,19.9186 19.4576,20.1883 L 23.8276,21.2647 V 19.1932 C 23.8276,18.0854 24.8893,17.2728 25.9844,17.5426 L 30.3541,18.6189 V 16.5474 C 30.3541,15.4396 31.4158,14.627 32.511,14.8968 L 39.4463,16.605 C 40.4105,16.8425 41.0865,17.6929 41.0865,18.6683 V 30.1594 C 41.0865,31.2672 40.0248,32.0797 38.9297,31.81 Z"
     fill="#ffffff"
     id="path4" />
  <path
     d="M 68.0475,40.8571 H 65.3127 L 60.9731,34.8846 H 58.6903 V 40.8571 H 56.3623 V 25.1457 H 61.9676 C 63.0525,25.1457 64.0244,25.3537 64.8833,25.7697 65.7421,26.1857 66.4051,26.7651 66.8722,27.508 67.3544,28.236 67.5955,29.0754 67.5955,30.0263 67.5955,31.2149 67.2263,32.2326 66.488,33.0794 65.7497,33.9114 64.7627,34.4611 63.5271,34.7286 Z M 58.6903,27.2629 V 32.7897 H 61.9676 C 62.9319,32.7897 63.708,32.5371 64.2956,32.032 64.8983,31.512 65.1997,30.8434 65.1997,30.0263 65.1997,29.2091 64.8983,28.548 64.2956,28.0429 63.708,27.5229 62.9319,27.2629 61.9676,27.2629 Z"
     fill="#000000"
     id="path5" />
  <path
     d="M 74.2248,41.08 C 73.396,41.08 72.6502,40.8794 71.9872,40.4783 71.3242,40.0623 70.8043,39.4977 70.4276,38.7846 70.0509,38.0566 69.8626,37.2394 69.8626,36.3331 V 29.3354 H 72.0776 V 36.1549 C 72.0776,37.0314 72.3262,37.7446 72.8234,38.2943 73.3207,38.844 73.9611,39.1189 74.7446,39.1189 75.5583,39.1189 76.2363,38.8366 76.7788,38.272 77.3212,37.7074 77.5925,37.0017 77.5925,36.1549 V 29.3354 H 79.8075 V 40.8571 H 78.2253 L 77.7055,39.1189 C 77.3288,39.7429 76.8315,40.2257 76.2137,40.5674 75.611,40.9091 74.948,41.08 74.2248,41.08 Z"
     fill="#000000"
     id="path6" />
  <path
     d="M 88.0648,41.08 C 86.6032,41.08 85.3299,40.7086 84.245,39.9657 83.1752,39.208 82.4444,38.1829 82.0526,36.8903 L 84.2902,36.5337 C 84.7272,37.3657 85.2471,37.9823 85.8498,38.3834 86.4525,38.7697 87.1908,38.9629 88.0648,38.9629 88.9538,38.9629 89.677,38.7697 90.2346,38.3834 90.7921,37.9823 91.0708,37.44 91.0708,36.7566 91.0708,36.2514 90.9126,35.828 90.5962,35.4863 90.2948,35.1446 89.9106,34.8697 89.4435,34.6617 88.9764,34.4537 88.3661,34.2234 87.6127,33.9709 86.6032,33.644 85.7744,33.3171 85.1265,32.9903 84.4786,32.6634 83.9286,32.2029 83.4766,31.6086 83.0396,30.9994 82.8211,30.2269 82.8211,29.2909 82.8211,28.4143 83.0396,27.6491 83.4766,26.9954 83.9286,26.3269 84.5464,25.8143 85.3299,25.4577 86.1135,25.1011 86.9874,24.9229 87.9518,24.9229 89.2928,24.9229 90.4455,25.272 91.4099,25.9703 92.3742,26.6537 93.0598,27.5971 93.4667,28.8006 L 91.2743,29.1571 C 90.9729,28.4737 90.5435,27.9537 89.9859,27.5971 89.4284,27.2257 88.773,27.04 88.0196,27.04 87.2059,27.04 86.5354,27.2331 86.008,27.6194 85.4806,27.9909 85.2169,28.5034 85.2169,29.1571 85.2169,29.6474 85.3676,30.0634 85.669,30.4051 85.9854,30.7469 86.3696,31.0217 86.8217,31.2297 87.2888,31.4377 87.9066,31.6754 88.675,31.9429 89.6544,32.2697 90.4681,32.604 91.116,32.9457 91.779,33.2726 92.3365,33.7406 92.7886,34.3497 93.2406,34.9589 93.4667,35.724 93.4667,36.6451 93.4667,37.5366 93.2256,38.3166 92.7434,38.9851 92.2763,39.6537 91.6284,40.1737 90.7996,40.5451 89.9859,40.9017 89.0743,41.08 88.0648,41.08 Z"
     fill="#000000"
     id="path7" />
  <path
     d="M 102.823,38.9406 102.62,40.8571 H 100.563 C 99.342,40.8571 98.416,40.56 97.783,39.9657 97.15,39.3714 96.833,38.5171 96.833,37.4029 V 31.2743 H 94.8219 V 29.3354 H 96.833 L 97.444,25.9926 H 99.048 V 29.3354 H 102.62 V 31.2743 H 99.048 V 37.4029 C 99.048,38.428 99.553,38.9406 100.563,38.9406 Z"
     fill="#000000"
     id="path8" />
  <path
     d="M 110.21,41.08 C 109.019,41.08 107.957,40.8274 107.023,40.3223 106.089,39.8171 105.358,39.1114 104.83,38.2051 104.303,37.2989 104.039,36.2663 104.039,35.1074 104.039,33.9486 104.303,32.916 104.83,32.0097 105.358,31.1034 106.089,30.3977 107.023,29.8926 107.957,29.3726 109.019,29.1126 110.21,29.1126 111.4,29.1126 112.462,29.3726 113.396,29.8926 114.331,30.3977 115.061,31.1034 115.589,32.0097 116.116,32.916 116.38,33.9486 116.38,35.1074 116.38,36.2663 116.116,37.2989 115.589,38.2051 115.061,39.1114 114.331,39.8171 113.396,40.3223 112.462,40.8274 111.4,41.08 110.21,41.08 Z M 110.21,39.0743 C 111.355,39.0743 112.281,38.7103 112.99,37.9823 113.713,37.2543 114.075,36.296 114.075,35.1074 114.075,33.9189 113.713,32.9606 112.99,32.2326 112.281,31.4897 111.355,31.1183 110.21,31.1183 109.064,31.1183 108.138,31.4897 107.43,32.2326 106.721,32.9606 106.367,33.9189 106.367,35.1074 106.367,36.2811 106.721,37.2394 107.43,37.9823 108.138,38.7103 109.064,39.0743 110.21,39.0743 Z"
     fill="#000000"
     id="path9" />
  <path
     d="M 118.755,40.8571 V 29.3354 H 120.36 L 120.835,30.9846 C 121.181,30.4051 121.611,29.9891 122.123,29.7366 122.635,29.4691 123.246,29.3354 123.954,29.3354 H 124.496 L 124.677,31.4303 H 123.411 C 122.598,31.4303 121.987,31.6606 121.581,32.1211 121.174,32.5817 120.97,33.2057 120.97,33.9931 V 40.8571 Z"
     fill="#000000"
     id="path10" />
  <path
     d="M 137.34,35.0183 C 137.34,35.3154 137.333,35.5457 137.318,35.7091 H 127.666 C 127.787,36.7343 128.194,37.5514 128.887,38.1606 129.58,38.7697 130.462,39.0743 131.531,39.0743 132.27,39.0743 132.925,38.9331 133.498,38.6509 134.085,38.3537 134.53,37.9674 134.831,37.492 L 136.911,37.8263 C 136.459,38.8663 135.728,39.6686 134.718,40.2331 133.724,40.7977 132.616,41.08 131.396,41.08 130.236,41.08 129.196,40.8274 128.277,40.3223 127.358,39.8023 126.642,39.0891 126.13,38.1829 125.617,37.2766 125.361,36.2514 125.361,35.1074 125.361,33.9486 125.617,32.916 126.13,32.0097 126.642,31.1034 127.35,30.3977 128.254,29.8926 129.158,29.3726 130.19,29.1126 131.351,29.1126 132.496,29.1126 133.52,29.3726 134.424,29.8926 135.344,30.3977 136.059,31.1034 136.572,32.0097 137.084,32.9011 137.34,33.904 137.34,35.0183 Z M 131.351,31.0514 C 130.462,31.0514 129.693,31.3114 129.045,31.8314 128.412,32.3514 127.99,33.0497 127.779,33.9263 H 134.922 C 134.726,33.0646 134.304,32.3737 133.656,31.8537 133.023,31.3189 132.255,31.0514 131.351,31.0514 Z"
     fill="#000000"
     id="path11" />
  <path
     d="M 59.6559,19.1199 C 58.8639,19.1199 58.1519,18.9359 57.5199,18.5679 56.8879,18.1919 56.3919,17.6719 56.0319,17.0079 55.6799,16.3439 55.5039,15.5959 55.5039,14.7639 55.5039,13.9319 55.6799,13.1879 56.0319,12.5319 56.3919,11.8679 56.8839,11.3519 57.5079,10.9839 58.1399,10.6079 58.8519,10.4199 59.6439,10.4199 60.4999,10.4199 61.2599,10.6359 61.9239,11.0679 62.5959,11.4919 63.0759,12.0679 63.3639,12.7959 L 62.1399,12.9879 C 61.9159,12.5399 61.5839,12.1919 61.1439,11.9439 60.7119,11.6879 60.2239,11.5599 59.6799,11.5599 59.1199,11.5599 58.6199,11.6959 58.1799,11.9679 57.7479,12.2399 57.4079,12.6199 57.1599,13.1079 56.9199,13.5879 56.7999,14.1399 56.7999,14.7639 56.7999,15.3959 56.9199,15.9559 57.1599,16.4439 57.4079,16.9239 57.7519,17.2999 58.1919,17.5719 58.6319,17.8439 59.1359,17.9799 59.7039,17.9799 60.2639,17.9799 60.7599,17.8519 61.1919,17.5959 61.6319,17.3319 61.9679,16.9639 62.1999,16.4919 L 63.4239,16.6839 C 63.1199,17.4279 62.6279,18.0199 61.9479,18.4599 61.2679,18.8999 60.5039,19.1199 59.6559,19.1199 Z"
     fill="#000000"
     id="path12" />
  <path
     d="M 69.6941,18.9999 H 68.1461 L 65.8541,16.4319 H 65.4821 V 18.9999 H 64.3061 V 12.7959 H 65.4821 V 15.3039 H 65.8421 L 68.0381,12.7959 H 69.4541 L 66.7901,15.7959 Z"
     fill="#000000"
     id="path13" />
  <path
     d="M 72.4907,12.6759 C 73.2587,12.6759 73.8627,12.9279 74.3027,13.4319 74.7507,13.9279 74.9747,14.6239 74.9747,15.5199 V 18.9999 H 74.1347 L 73.8587,18.0279 C 73.6587,18.3399 73.3907,18.5999 73.0547,18.8079 72.7187,19.0159 72.3147,19.1199 71.8427,19.1199 71.4267,19.1199 71.0547,19.0359 70.7267,18.8679 70.3987,18.6999 70.1427,18.4679 69.9587,18.1719 69.7747,17.8679 69.6827,17.5279 69.6827,17.1519 69.6827,16.5679 69.9147,16.0999 70.3787,15.7479 70.8427,15.3959 71.5147,15.2199 72.3947,15.2199 H 73.7987 C 73.7667,14.7319 73.6307,14.3559 73.3907,14.0919 73.1507,13.8199 72.8307,13.6839 72.4307,13.6839 72.1267,13.6839 71.8587,13.7559 71.6267,13.8999 71.3947,14.0439 71.2187,14.2319 71.0987,14.4639 L 70.0067,14.2839 C 70.1667,13.7879 70.4747,13.3959 70.9307,13.1079 71.3867,12.8199 71.9067,12.6759 72.4907,12.6759 Z M 72.0947,18.1239 C 72.5987,18.1239 73.0067,17.9599 73.3187,17.6319 73.6387,17.2959 73.7987,16.8359 73.7987,16.2519 V 16.1799 H 72.4307 C 71.3907,16.1799 70.8707,16.4919 70.8707,17.1159 70.8707,17.4199 70.9827,17.6639 71.2067,17.8479 71.4307,18.0319 71.7267,18.1239 72.0947,18.1239 Z"
     fill="#000000"
     id="path14" />
  <path
     d="M 79.5831,16.7439 C 79.3911,16.8319 79.1631,16.8999 78.8991,16.9479 78.6351,16.9959 78.3751,17.0199 78.1191,17.0199 77.3751,17.0199 76.8031,16.8119 76.4031,16.3959 76.0031,15.9799 75.8031,15.3919 75.8031,14.6319 V 12.7959 H 76.9791 V 14.6319 C 76.9791,15.5199 77.4071,15.9639 78.2631,15.9639 78.7831,15.9639 79.2231,15.8719 79.5831,15.6879 V 12.7959 H 80.7591 V 18.9999 H 79.5831 Z"
     fill="#000000"
     id="path15" />
  <path
     d="M 84.5849,12.6759 C 85.3529,12.6759 85.9569,12.9279 86.3969,13.4319 86.8449,13.9279 87.0689,14.6239 87.0689,15.5199 V 18.9999 H 86.2289 L 85.9529,18.0279 C 85.7529,18.3399 85.4849,18.5999 85.1489,18.8079 84.8129,19.0159 84.4089,19.1199 83.9369,19.1199 83.5209,19.1199 83.1489,19.0359 82.8209,18.8679 82.4929,18.6999 82.2369,18.4679 82.0529,18.1719 81.8689,17.8679 81.7769,17.5279 81.7769,17.1519 81.7769,16.5679 82.0089,16.0999 82.4729,15.7479 82.9369,15.3959 83.6089,15.2199 84.4889,15.2199 H 85.8929 C 85.8609,14.7319 85.7249,14.3559 85.4849,14.0919 85.2449,13.8199 84.9249,13.6839 84.5249,13.6839 84.2209,13.6839 83.9529,13.7559 83.7209,13.8999 83.4889,14.0439 83.3129,14.2319 83.1929,14.4639 L 82.1009,14.2839 C 82.2609,13.7879 82.5689,13.3959 83.0249,13.1079 83.4809,12.8199 84.0009,12.6759 84.5849,12.6759 Z M 84.1889,18.1239 C 84.6929,18.1239 85.1009,17.9599 85.4129,17.6319 85.7329,17.2959 85.8929,16.8359 85.8929,16.2519 V 16.1799 H 84.5249 C 83.4849,16.1799 82.9649,16.4919 82.9649,17.1159 82.9649,17.4199 83.0769,17.6639 83.3009,17.8479 83.5249,18.0319 83.8209,18.1239 84.1889,18.1239 Z"
     fill="#000000"
     id="path16" />
  <path
     d="M 90.1173,18.9999 H 88.3773 V 12.7959 H 89.5173 V 17.6799 H 89.6973 L 92.2053,12.7959 H 93.9453 V 18.9999 H 92.8053 V 14.1279 H 92.6253 Z M 91.1733,11.9919 C 90.6533,11.9919 90.2173,11.8559 89.8653,11.5839 89.5213,11.3039 89.3173,10.8879 89.2533,10.3359 H 90.2133 C 90.2533,10.5919 90.3533,10.7879 90.5133,10.9239 90.6813,11.0519 90.9013,11.1159 91.1733,11.1159 91.4453,11.1159 91.6613,11.0519 91.8213,10.9239 91.9893,10.7879 92.0893,10.5919 92.1213,10.3359 H 93.0933 C 93.0213,10.8879 92.8093,11.3039 92.4573,11.5839 92.1133,11.8559 91.6853,11.9919 91.1733,11.9919 Z"
     fill="#000000"
     id="path17" />
  <path
     d="M 98.033,18.9999 H 96.857 V 13.8759 H 94.7092 V 12.7959 H 100.181 V 13.8759 H 98.033 Z"
     fill="#000000"
     id="path18" />
  <path
     d="M 106.729,15.8559 C 106.729,16.0159 106.725,16.1399 106.717,16.2279 H 101.593 C 101.657,16.7799 101.873,17.2199 102.241,17.5479 102.609,17.8759 103.077,18.0399 103.645,18.0399 104.037,18.0399 104.385,17.9639 104.689,17.8119 105.001,17.6519 105.237,17.4439 105.397,17.1879 L 106.501,17.3679 C 106.261,17.9279 105.873,18.3599 105.337,18.6639 104.809,18.9679 104.221,19.1199 103.573,19.1199 102.957,19.1199 102.405,18.9839 101.917,18.7119 101.429,18.4319 101.049,18.0479 100.777,17.5599 100.505,17.0719 100.369,16.5199 100.369,15.9039 100.369,15.2799 100.505,14.7239 100.777,14.2359 101.049,13.7479 101.425,13.3679 101.905,13.0959 102.385,12.8159 102.933,12.6759 103.549,12.6759 104.157,12.6759 104.701,12.8159 105.181,13.0959 105.669,13.3679 106.049,13.7479 106.321,14.2359 106.593,14.7159 106.729,15.2559 106.729,15.8559 Z M 103.549,13.7199 C 103.077,13.7199 102.669,13.8599 102.325,14.1399 101.989,14.4199 101.765,14.7959 101.653,15.2679 H 105.445 C 105.341,14.8039 105.117,14.4319 104.773,14.1519 104.437,13.8639 104.029,13.7199 103.549,13.7199 Z"
     fill="#000000"
     id="path19" />
  <path
     d="M 112.009,18.9999 H 110.269 V 12.7959 H 111.409 V 17.6799 H 111.589 L 114.097,12.7959 H 115.837 V 18.9999 H 114.697 V 14.1279 H 114.517 Z"
     fill="#000000"
     id="path20" />
  <path
     d="M 120.597,15.8319 C 120.925,15.9279 121.197,16.1039 121.413,16.3599 121.629,16.6079 121.737,16.9159 121.737,17.2839 121.737,17.6279 121.637,17.9399 121.437,18.2199 121.237,18.4919 120.949,18.7119 120.573,18.8799 120.205,19.0399 119.777,19.1199 119.289,19.1199 118.633,19.1199 118.069,18.9679 117.597,18.6639 117.125,18.3519 116.813,17.9359 116.661,17.4159 L 117.753,17.2359 C 118.017,17.8119 118.525,18.0999 119.277,18.0999 119.693,18.0999 120.009,18.0239 120.225,17.8719 120.449,17.7119 120.561,17.4919 120.561,17.2119 120.561,16.9639 120.457,16.7639 120.249,16.6119 120.049,16.4599 119.725,16.3839 119.277,16.3839 H 118.461 V 15.3519 H 119.277 C 119.661,15.3519 119.953,15.2799 120.153,15.1359 120.361,14.9919 120.465,14.7999 120.465,14.5599 120.465,14.3039 120.353,14.0959 120.129,13.9359 119.913,13.7759 119.645,13.6959 119.325,13.6959 119.013,13.6959 118.733,13.7719 118.485,13.9239 118.237,14.0759 118.049,14.2839 117.921,14.5479 L 116.829,14.3559 C 117.013,13.8199 117.329,13.4079 117.777,13.1199 118.233,12.8239 118.761,12.6759 119.361,12.6759 119.793,12.6759 120.181,12.7519 120.525,12.9039 120.877,13.0559 121.149,13.2679 121.341,13.5399 121.541,13.8119 121.641,14.1159 121.641,14.4519 121.641,14.7959 121.545,15.0879 121.353,15.3279 121.161,15.5679 120.909,15.7359 120.597,15.8319 Z"
     fill="#000000"
     id="path21" />
</svg>
