<?xml version="1.0" encoding="UTF-8" standalone="no"?>
<svg
   width="156"
   height="52"
   viewBox="0 0 156 52"
   fill="none"
   version="1.1"
   id="svg21"
   sodipodi:docname="rustore-dark.svg"
   inkscape:version="1.3.2 (091e20ef0f, 2023-11-25)"
   xmlns:inkscape="http://www.inkscape.org/namespaces/inkscape"
   xmlns:sodipodi="http://sodipodi.sourceforge.net/DTD/sodipodi-0.dtd"
   xmlns="http://www.w3.org/2000/svg"
   xmlns:svg="http://www.w3.org/2000/svg">
  <defs
     id="defs21" />
  <sodipodi:namedview
     id="namedview21"
     pagecolor="#ffffff"
     bordercolor="#000000"
     borderopacity="0.25"
     inkscape:showpageshadow="2"
     inkscape:pageopacity="0.0"
     inkscape:pagecheckerboard="0"
     inkscape:deskcolor="#d1d1d1"
     inkscape:zoom="5.6568543"
     inkscape:cx="100.40916"
     inkscape:cy="39.509591"
     inkscape:window-width="2560"
     inkscape:window-height="1372"
     inkscape:window-x="0"
     inkscape:window-y="0"
     inkscape:window-maximized="1"
     inkscape:current-layer="svg21" />
  <path
     d="M 0.00761953,7.430343 C 0.00761953,3.327623 2.9483995,0.00174302 6.5760395,0.00174302 H 149.43962 C 153.06662,0.00174302 156.00762,3.327633 156.00762,7.430343 V 44.573143 C 156.00762,48.675843 153.06662,52.001743 149.43962,52.001743 H 6.5760395 C 2.9483995,52.001743 0.00761953,48.675843 0.00761953,44.573143 Z"
     fill="#000000"
     id="path1" />
  <path
     fill-rule="evenodd"
     clip-rule="evenodd"
     d="M 149.43962,1.001743 H 6.5760395 C 3.6127895,1.001743 1.0076195,3.760703 1.0076195,7.430343 V 44.573143 C 1.0076195,48.242743 3.6127895,51.001743 6.5760395,51.001743 H 149.43962 C 152.40262,51.001743 155.00762,48.242743 155.00762,44.573143 V 7.430343 C 155.00762,3.760703 152.40262,1.001743 149.43962,1.001743 Z M 6.5760395,0.00174302 C 2.9483995,0.00174302 0.00761953,3.327623 0.00761953,7.430343 V 44.573143 C 0.00761953,48.675843 2.9483995,52.001743 6.5760395,52.001743 H 149.43962 C 153.06662,52.001743 156.00762,48.675843 156.00762,44.573143 V 7.430343 C 156.00762,3.327623 153.06662,0.00174302 149.43962,0.00174302 Z"
     fill="#a6a6a6"
     id="path2" />
  <path
     d="M 13.824919,41.163943 C 16.340519,43.644343 20.389319,43.644343 28.486919,43.644343 H 29.918319 C 38.015919,43.644343 42.064719,43.644343 44.580319,41.163943 47.095819,38.683643 47.095819,34.691443 47.095819,26.707143 V 25.295743 C 47.095819,17.311443 47.095819,13.319343 44.580319,10.838943 42.064719,8.358643 38.015919,8.358643 29.918319,8.358643 H 28.486919 C 20.389319,8.358643 16.340519,8.358643 13.824919,10.838943 11.309419,13.319343 11.309419,17.311443 11.309419,25.295743 V 26.707143 C 11.309419,34.691443 11.309419,38.683643 13.824919,41.163943 Z"
     fill="#0077ff"
     id="path3" />
  <path
     fill-rule="evenodd"
     clip-rule="evenodd"
     d="M 38.937319,31.811743 36.519319,31.216143 C 36.228119,31.133743 36.022519,30.875443 36.012219,30.575243 L 35.710419,21.800143 C 35.623119,20.638743 34.748719,19.714943 33.835019,19.442943 33.783719,19.427643 33.728919,19.448243 33.698519,19.491743 33.667619,19.536043 33.679619,19.597243 33.722619,19.630043 33.948319,19.802343 34.569319,20.364343 34.569319,21.333743 L 34.567519,32.806943 C 34.567519,33.914743 33.505819,34.727243 32.410719,34.457543 L 29.955319,33.852743 C 29.683119,33.758843 29.493919,33.508843 29.484019,33.220443 L 29.182319,24.444743 C 29.095019,23.283343 28.220619,22.359643 27.306919,22.087543 27.255619,22.072343 27.200819,22.092843 27.170419,22.136343 27.139619,22.180643 27.151519,22.241843 27.194519,22.274743 27.420219,22.446943 28.041219,23.008943 28.041219,23.978343 L 28.039419,33.541843 28.040819,33.542043 V 35.452643 C 28.040819,36.560443 26.979019,37.373043 25.883919,37.103243 L 18.948619,35.395043 C 17.984419,35.157543 17.308419,34.307143 17.308419,33.331743 V 21.840643 C 17.308419,20.732843 18.370119,19.920343 19.465219,20.190043 L 23.835219,21.266443 V 19.194943 C 23.835219,18.087143 24.896919,17.274543 25.992019,17.544343 L 30.361719,18.620643 V 16.549143 C 30.361719,15.441343 31.423419,14.628743 32.518619,14.898543 L 39.453919,16.606743 C 40.418119,16.844243 41.094119,17.694643 41.094119,18.670043 V 30.161143 C 41.094119,31.268943 40.032419,32.081443 38.937319,31.811743 Z"
     fill="#ffffff"
     id="path4" />
  <path
     d="M 68.055119,40.858843 H 65.320319 L 60.980719,34.886343 H 58.697919 V 40.858843 H 56.369919 V 25.147443 H 61.975219 C 63.060119,25.147443 64.032019,25.355443 64.890919,25.771443 65.749719,26.187443 66.412719,26.766843 66.879819,27.509743 67.362019,28.237743 67.603119,29.077143 67.603119,30.028043 67.603119,31.216643 67.233919,32.234343 66.495619,33.081143 65.757319,33.913143 64.770319,34.462843 63.534719,34.730343 Z M 58.697919,27.264643 V 32.791443 H 61.975219 C 62.939519,32.791443 63.715619,32.538843 64.303219,32.033743 64.905919,31.513743 65.207319,30.845143 65.207319,30.028043 65.207319,29.210843 64.905919,28.549743 64.303219,28.044643 63.715619,27.524643 62.939519,27.264643 61.975219,27.264643 Z"
     fill="#ffffff"
     id="path5" />
  <path
     d="M 74.232419,41.081743 C 73.403619,41.081743 72.657819,40.881143 71.994819,40.480043 71.331819,40.064043 70.811919,39.499443 70.435219,38.786343 70.058519,38.058343 69.870219,37.241143 69.870219,36.334843 V 29.337143 H 72.085219 V 36.156643 C 72.085219,37.033143 72.333819,37.746343 72.831019,38.296043 73.328319,38.845743 73.968719,39.120643 74.752219,39.120643 75.565919,39.120643 76.243919,38.838343 76.786419,38.273743 77.328819,37.709143 77.600119,37.003443 77.600119,36.156643 V 29.337143 H 79.815119 V 40.858843 H 78.232919 L 77.713119,39.120643 C 77.336419,39.744643 76.839119,40.227443 76.221319,40.569143 75.618619,40.910843 74.955619,41.081743 74.232419,41.081743 Z"
     fill="#ffffff"
     id="path6" />
  <path
     d="M 88.072419,41.081743 C 86.610819,41.081743 85.337519,40.710343 84.252619,39.967443 83.182819,39.209743 82.452019,38.184643 82.060219,36.892043 L 84.297819,36.535443 C 84.734819,37.367443 85.254719,37.984043 85.857419,38.385143 86.460119,38.771443 87.198419,38.964643 88.072419,38.964643 88.961419,38.964643 89.684619,38.771443 90.242219,38.385143 90.799719,37.984043 91.078419,37.441743 91.078419,36.758343 91.078419,36.253143 90.920219,35.829743 90.603819,35.488043 90.302419,35.146343 89.918219,34.871443 89.451119,34.663443 88.984019,34.455443 88.373719,34.225143 87.620319,33.972643 86.610819,33.645743 85.782019,33.318843 85.134119,32.992043 84.486219,32.665143 83.936219,32.204643 83.484219,31.610343 83.047219,31.001143 82.828719,30.228643 82.828719,29.292643 82.828719,28.416043 83.047219,27.650843 83.484219,26.997143 83.936219,26.328643 84.554019,25.816043 85.337519,25.459443 86.121119,25.102843 86.995019,24.924643 87.959419,24.924643 89.300419,24.924643 90.453119,25.273743 91.417519,25.972043 92.381819,26.655443 93.067419,27.598843 93.474319,28.802343 L 91.281919,29.158843 C 90.980519,28.475443 90.551119,27.955443 89.993519,27.598843 89.436019,27.227443 88.780619,27.041743 88.027219,27.041743 87.213519,27.041743 86.543019,27.234843 86.015619,27.621143 85.488219,27.992643 85.224519,28.505143 85.224519,29.158843 85.224519,29.649143 85.375219,30.065143 85.676619,30.406843 85.993019,30.748643 86.377219,31.023443 86.829319,31.231443 87.296419,31.439443 87.914219,31.677143 88.682619,31.944643 89.662019,32.271443 90.475719,32.605743 91.123619,32.947443 91.786619,33.274343 92.344119,33.742343 92.796219,34.351443 93.248219,34.960643 93.474319,35.725743 93.474319,36.646843 93.474319,37.538343 93.233219,38.318343 92.751019,38.986843 92.283919,39.655443 91.636019,40.175443 90.807219,40.546843 89.993519,40.903443 89.081919,41.081743 88.072419,41.081743 Z"
     fill="#ffffff"
     id="path7" />
  <path
     d="M 102.83062,38.942343 102.62762,40.858843 H 100.57062 C 99.349619,40.858843 98.423619,40.561743 97.790619,39.967443 97.157619,39.373143 96.841119,38.518843 96.841119,37.404643 V 31.276043 H 94.829519 V 29.337143 H 96.841119 L 97.451619,25.994343 H 99.055619 V 29.337143 H 102.62762 V 31.276043 H 99.055619 V 37.404643 C 99.055619,38.429743 99.560619,38.942343 100.57062,38.942343 Z"
     fill="#ffffff"
     id="path8" />
  <path
     d="M 110.21762,41.081743 C 109.02662,41.081743 107.96462,40.829143 107.03062,40.324043 106.09662,39.818843 105.36562,39.113143 104.83762,38.206843 104.31062,37.300643 104.04662,36.268043 104.04662,35.109143 104.04662,33.950343 104.31062,32.917743 104.83762,32.011443 105.36562,31.105143 106.09662,30.399443 107.03062,29.894343 107.96462,29.374343 109.02662,29.114343 110.21762,29.114343 111.40762,29.114343 112.46962,29.374343 113.40362,29.894343 114.33862,30.399443 115.06862,31.105143 115.59662,32.011443 116.12362,32.917743 116.38762,33.950343 116.38762,35.109143 116.38762,36.268043 116.12362,37.300643 115.59662,38.206843 115.06862,39.113143 114.33862,39.818843 113.40362,40.324043 112.46962,40.829143 111.40762,41.081743 110.21762,41.081743 Z M 110.21762,39.076043 C 111.36262,39.076043 112.28862,38.712043 112.99762,37.984043 113.72062,37.256043 114.08262,36.297743 114.08262,35.109143 114.08262,33.920643 113.72062,32.962343 112.99762,32.234343 112.28862,31.491443 111.36262,31.120043 110.21762,31.120043 109.07162,31.120043 108.14562,31.491443 107.43762,32.234343 106.72862,32.962343 106.37462,33.920643 106.37462,35.109143 106.37462,36.282843 106.72862,37.241143 107.43762,37.984043 108.14562,38.712043 109.07162,39.076043 110.21762,39.076043 Z"
     fill="#ffffff"
     id="path9" />
  <path
     d="M 118.76262,40.858843 V 29.337143 H 120.36762 L 120.84262,30.986343 C 121.18862,30.406843 121.61862,29.990843 122.13062,29.738343 122.64262,29.470843 123.25362,29.337143 123.96162,29.337143 H 124.50362 L 124.68462,31.432043 H 123.41862 C 122.60562,31.432043 121.99462,31.662343 121.58862,32.122843 121.18162,32.583443 120.97762,33.207443 120.97762,33.994843 V 40.858843 Z"
     fill="#ffffff"
     id="path10" />
  <path
     d="M 137.34762,35.020043 C 137.34762,35.317143 137.34062,35.547443 137.32562,35.710843 H 127.67362 C 127.79462,36.736043 128.20162,37.553143 128.89462,38.162343 129.58762,38.771443 130.46962,39.076043 131.53862,39.076043 132.27762,39.076043 132.93262,38.934843 133.50562,38.652643 134.09262,38.355443 134.53762,37.969143 134.83862,37.493743 L 136.91862,37.828043 C 136.46662,38.868043 135.73562,39.670343 134.72562,40.234843 133.73162,40.799443 132.62362,41.081743 131.40362,41.081743 130.24362,41.081743 129.20362,40.829143 128.28462,40.324043 127.36562,39.804043 126.64962,39.090843 126.13762,38.184643 125.62462,37.278343 125.36862,36.253143 125.36862,35.109143 125.36862,33.950343 125.62462,32.917743 126.13762,32.011443 126.64962,31.105143 127.35762,30.399443 128.26162,29.894343 129.16562,29.374343 130.19762,29.114343 131.35862,29.114343 132.50362,29.114343 133.52762,29.374343 134.43162,29.894343 135.35162,30.399443 136.06662,31.105143 136.57962,32.011443 137.09162,32.902843 137.34762,33.905743 137.34762,35.020043 Z M 131.35862,31.053143 C 130.46962,31.053143 129.70062,31.313143 129.05262,31.833143 128.41962,32.353143 127.99762,33.051443 127.78662,33.928043 H 134.92962 C 134.73362,33.066343 134.31162,32.375443 133.66362,31.855443 133.03062,31.320643 132.26262,31.053143 131.35862,31.053143 Z"
     fill="#ffffff"
     id="path11" />
  <path
     d="M 59.663519,19.121643 C 58.871519,19.121643 58.159519,18.937643 57.527519,18.569643 56.895519,18.193643 56.399519,17.673643 56.039519,17.009643 55.687519,16.345643 55.511519,15.597643 55.511519,14.765643 55.511519,13.933643 55.687519,13.189643 56.039519,12.533643 56.399519,11.869643 56.891519,11.353643 57.515519,10.985643 58.147519,10.609643 58.859519,10.421643 59.651519,10.421643 60.507519,10.421643 61.267519,10.637643 61.931519,11.069643 62.603519,11.493643 63.083519,12.069643 63.371519,12.797643 L 62.147519,12.989643 C 61.923519,12.541643 61.591519,12.193643 61.151519,11.945643 60.719519,11.689643 60.231519,11.561643 59.687519,11.561643 59.127519,11.561643 58.627519,11.697643 58.187519,11.969643 57.755519,12.241643 57.415519,12.621643 57.167519,13.109643 56.927519,13.589643 56.807519,14.141643 56.807519,14.765643 56.807519,15.397643 56.927519,15.957643 57.167519,16.445643 57.415519,16.925643 57.759519,17.301643 58.199519,17.573643 58.639519,17.845643 59.143519,17.981643 59.711519,17.981643 60.271519,17.981643 60.767519,17.853643 61.199519,17.597643 61.639519,17.333643 61.975519,16.965643 62.207519,16.493643 L 63.431519,16.685643 C 63.127519,17.429643 62.635519,18.021643 61.955519,18.461643 61.275519,18.901643 60.511519,19.121643 59.663519,19.121643 Z"
     fill="#ffffff"
     id="path12" />
  <path
     d="M 69.701719,19.001643 H 68.153719 L 65.861719,16.433643 H 65.489719 V 19.001643 H 64.313719 V 12.797643 H 65.489719 V 15.305643 H 65.849719 L 68.045719,12.797643 H 69.461719 L 66.797719,15.797643 Z"
     fill="#ffffff"
     id="path13" />
  <path
     d="M 72.498319,12.677643 C 73.266319,12.677643 73.870319,12.929643 74.310319,13.433643 74.758319,13.929643 74.982319,14.625643 74.982319,15.521643 V 19.001643 H 74.142319 L 73.866319,18.029643 C 73.666319,18.341643 73.398319,18.601643 73.062319,18.809643 72.726319,19.017643 72.322319,19.121643 71.850319,19.121643 71.434319,19.121643 71.062319,19.037643 70.734319,18.869643 70.406319,18.701643 70.150319,18.469643 69.966319,18.173643 69.782319,17.869643 69.690319,17.529643 69.690319,17.153643 69.690319,16.569643 69.922319,16.101643 70.386319,15.749643 70.850319,15.397643 71.522319,15.221643 72.402319,15.221643 H 73.806319 C 73.774319,14.733643 73.638319,14.357643 73.398319,14.093643 73.158319,13.821643 72.838319,13.685643 72.438319,13.685643 72.134319,13.685643 71.866319,13.757643 71.634319,13.901643 71.402319,14.045643 71.226319,14.233643 71.106319,14.465643 L 70.014319,14.285643 C 70.174319,13.789643 70.482319,13.397643 70.938319,13.109643 71.394319,12.821643 71.914319,12.677643 72.498319,12.677643 Z M 72.102319,18.125643 C 72.606319,18.125643 73.014319,17.961643 73.326319,17.633643 73.646319,17.297643 73.806319,16.837643 73.806319,16.253643 V 16.181643 H 72.438319 C 71.398319,16.181643 70.878319,16.493643 70.878319,17.117643 70.878319,17.421643 70.990319,17.665643 71.214319,17.849643 71.438319,18.033643 71.734319,18.125643 72.102319,18.125643 Z"
     fill="#ffffff"
     id="path14" />
  <path
     d="M 79.590719,16.745643 C 79.398719,16.833643 79.170719,16.901643 78.906719,16.949643 78.642719,16.997643 78.382719,17.021643 78.126719,17.021643 77.382719,17.021643 76.810719,16.813643 76.410719,16.397643 76.010719,15.981643 75.810719,15.393643 75.810719,14.633643 V 12.797643 H 76.986719 V 14.633643 C 76.986719,15.521643 77.414719,15.965643 78.270719,15.965643 78.790719,15.965643 79.230719,15.873643 79.590719,15.689643 V 12.797643 H 80.766719 V 19.001643 H 79.590719 Z"
     fill="#ffffff"
     id="path15" />
  <path
     d="M 84.592519,12.677643 C 85.360519,12.677643 85.964519,12.929643 86.404519,13.433643 86.852519,13.929643 87.076519,14.625643 87.076519,15.521643 V 19.001643 H 86.236519 L 85.960519,18.029643 C 85.760519,18.341643 85.492519,18.601643 85.156519,18.809643 84.820519,19.017643 84.416519,19.121643 83.944519,19.121643 83.528519,19.121643 83.156519,19.037643 82.828519,18.869643 82.500519,18.701643 82.244519,18.469643 82.060519,18.173643 81.876519,17.869643 81.784519,17.529643 81.784519,17.153643 81.784519,16.569643 82.016519,16.101643 82.480519,15.749643 82.944519,15.397643 83.616519,15.221643 84.496519,15.221643 H 85.900519 C 85.868519,14.733643 85.732519,14.357643 85.492519,14.093643 85.252519,13.821643 84.932519,13.685643 84.532519,13.685643 84.228519,13.685643 83.960519,13.757643 83.728519,13.901643 83.496519,14.045643 83.320519,14.233643 83.200519,14.465643 L 82.108519,14.285643 C 82.268519,13.789643 82.576519,13.397643 83.032519,13.109643 83.488519,12.821643 84.008519,12.677643 84.592519,12.677643 Z M 84.196519,18.125643 C 84.700519,18.125643 85.108519,17.961643 85.420519,17.633643 85.740519,17.297643 85.900519,16.837643 85.900519,16.253643 V 16.181643 H 84.532519 C 83.492519,16.181643 82.972519,16.493643 82.972519,17.117643 82.972519,17.421643 83.084519,17.665643 83.308519,17.849643 83.532519,18.033643 83.828519,18.125643 84.196519,18.125643 Z"
     fill="#ffffff"
     id="path16" />
  <path
     d="M 90.124919,19.001643 H 88.384919 V 12.797643 H 89.524919 V 17.681643 H 89.704919 L 92.212919,12.797643 H 93.952919 V 19.001643 H 92.812919 V 14.129643 H 92.632919 Z M 91.180919,11.993643 C 90.660919,11.993643 90.224919,11.857643 89.872919,11.585643 89.528919,11.305643 89.324919,10.889643 89.260919,10.337643 H 90.220919 C 90.260919,10.593643 90.360919,10.789643 90.520919,10.925643 90.688919,11.053643 90.908919,11.117643 91.180919,11.117643 91.452919,11.117643 91.668919,11.053643 91.828919,10.925643 91.996919,10.789643 92.096919,10.593643 92.128919,10.337643 H 93.100919 C 93.028919,10.889643 92.816919,11.305643 92.464919,11.585643 92.120919,11.857643 91.692919,11.993643 91.180919,11.993643 Z"
     fill="#ffffff"
     id="path17" />
  <path
     d="M 98.040619,19.001643 H 96.864819 V 13.877643 H 94.716819 V 12.797643 H 100.18862 V 13.877643 H 98.040619 Z"
     fill="#ffffff"
     id="path18" />
  <path
     d="M 106.73662,15.857643 C 106.73662,16.017643 106.73262,16.141643 106.72462,16.229643 H 101.60062 C 101.66462,16.781643 101.88062,17.221643 102.24862,17.549643 102.61662,17.877643 103.08462,18.041643 103.65262,18.041643 104.04462,18.041643 104.39262,17.965643 104.69662,17.813643 105.00862,17.653643 105.24462,17.445643 105.40462,17.189643 L 106.50862,17.369643 C 106.26862,17.929643 105.88062,18.361643 105.34462,18.665643 104.81662,18.969643 104.22862,19.121643 103.58062,19.121643 102.96462,19.121643 102.41262,18.985643 101.92462,18.713643 101.43662,18.433643 101.05662,18.049643 100.78462,17.561643 100.51262,17.073643 100.37662,16.521643 100.37662,15.905643 100.37662,15.281643 100.51262,14.725643 100.78462,14.237643 101.05662,13.749643 101.43262,13.369643 101.91262,13.097643 102.39262,12.817643 102.94062,12.677643 103.55662,12.677643 104.16462,12.677643 104.70862,12.817643 105.18862,13.097643 105.67662,13.369643 106.05662,13.749643 106.32862,14.237643 106.60062,14.717643 106.73662,15.257643 106.73662,15.857643 Z M 103.55662,13.721643 C 103.08462,13.721643 102.67662,13.861643 102.33262,14.141643 101.99662,14.421643 101.77262,14.797643 101.66062,15.269643 H 105.45262 C 105.34862,14.805643 105.12462,14.433643 104.78062,14.153643 104.44462,13.865643 104.03662,13.721643 103.55662,13.721643 Z"
     fill="#ffffff"
     id="path19" />
  <path
     d="M 112.01662,19.001643 H 110.27662 V 12.797643 H 111.41662 V 17.681643 H 111.59662 L 114.10462,12.797643 H 115.84462 V 19.001643 H 114.70462 V 14.129643 H 114.52462 Z"
     fill="#ffffff"
     id="path20" />
  <path
     d="M 120.60462,15.833643 C 120.93262,15.929643 121.20462,16.105643 121.42062,16.361643 121.63662,16.609643 121.74462,16.917643 121.74462,17.285643 121.74462,17.629643 121.64462,17.941643 121.44462,18.221643 121.24462,18.493643 120.95662,18.713643 120.58062,18.881643 120.21262,19.041643 119.78462,19.121643 119.29662,19.121643 118.64062,19.121643 118.07662,18.969643 117.60462,18.665643 117.13262,18.353643 116.82062,17.937643 116.66862,17.417643 L 117.76062,17.237643 C 118.02462,17.813643 118.53262,18.101643 119.28462,18.101643 119.70062,18.101643 120.01662,18.025643 120.23262,17.873643 120.45662,17.713643 120.56862,17.493643 120.56862,17.213643 120.56862,16.965643 120.46462,16.765643 120.25662,16.613643 120.05662,16.461643 119.73262,16.385643 119.28462,16.385643 H 118.46862 V 15.353643 H 119.28462 C 119.66862,15.353643 119.96062,15.281643 120.16062,15.137643 120.36862,14.993643 120.47262,14.801643 120.47262,14.561643 120.47262,14.305643 120.36062,14.097643 120.13662,13.937643 119.92062,13.777643 119.65262,13.697643 119.33262,13.697643 119.02062,13.697643 118.74062,13.773643 118.49262,13.925643 118.24462,14.077643 118.05662,14.285643 117.92862,14.549643 L 116.83662,14.357643 C 117.02062,13.821643 117.33662,13.409643 117.78462,13.121643 118.24062,12.825643 118.76862,12.677643 119.36862,12.677643 119.80062,12.677643 120.18862,12.753643 120.53262,12.905643 120.88462,13.057643 121.15662,13.269643 121.34862,13.541643 121.54862,13.813643 121.64862,14.117643 121.64862,14.453643 121.64862,14.797643 121.55262,15.089643 121.36062,15.329643 121.16862,15.569643 120.91662,15.737643 120.60462,15.833643 Z"
     fill="#ffffff"
     id="path21" />
</svg>
